<svg width="187" height="148" viewBox="0 0 187 148" fill="none" xmlns="http://www.w3.org/2000/svg">
<path fill-rule="evenodd" clip-rule="evenodd" d="M73.9138 0.873047L73.1698 2.80205L73.1778 2.81005C75.3698 3.37005 75.5668 6.31405 75.5668 6.31405L77.1138 5.23805C77.5548 2.18505 73.9138 0.873047 73.9138 0.873047ZM23.1868 31.192C23.1069 30.3238 23.1911 29.4482 23.4348 28.611C23.6802 29.4479 23.7647 30.3237 23.6838 31.192C23.7648 32.0604 23.6803 32.9362 23.4348 33.773C23.1943 32.938 23.1125 32.0652 23.1938 31.2L23.1868 31.192ZM95.8008 37.245L93.9398 33.471C93.9398 33.471 100.524 34.01 102.487 29.352L106.497 31.637C106.497 31.637 103.291 37.58 97.9968 37.579C97.2546 37.58 96.5162 37.4711 95.8058 37.256L95.8008 37.245ZM20.3908 37.695C19.9208 38.208 19.6208 38.703 19.7208 38.795L19.7278 38.806C19.7404 38.8116 19.7544 38.813 19.7678 38.81C20.16 38.6386 20.5013 38.3689 20.7588 38.027C21.2268 37.514 21.5268 37.019 21.4268 36.927C21.3268 36.835 20.8608 37.182 20.3908 37.695ZM23.6128 37.124C23.3691 37.9612 23.285 38.8368 23.3648 39.705L23.3708 39.711C23.2897 40.577 23.3717 41.4504 23.6128 42.286C23.8566 41.4489 23.9404 40.5733 23.8598 39.705C23.9402 38.8368 23.8564 37.9613 23.6128 37.124ZM161.738 45.37C161.656 44.5018 161.741 43.6259 161.986 42.789C162.229 43.6263 162.313 44.5018 162.233 45.37C162.313 46.2383 162.229 47.1138 161.986 47.951C161.742 47.116 161.658 46.2423 161.739 45.376L161.738 45.37ZM55.7788 49.615C55.7788 49.615 56.1458 45.761 59.2138 45.435L60.6408 46.667C60.6408 46.667 57.8308 47.593 57.8338 49.858L55.7788 49.615ZM156.742 49.461C155.886 49.3806 155.022 49.4648 154.198 49.709V49.714C155.022 49.9577 155.886 50.0405 156.742 49.958C157.598 50.0389 158.461 49.9544 159.285 49.709C158.461 49.4648 157.598 49.3807 156.742 49.461ZM158.272 52.976C158.172 52.884 158.472 52.389 158.94 51.876C159.408 51.363 159.875 51.016 159.977 51.108C160.079 51.2001 159.777 51.695 159.307 52.208C159.05 52.5496 158.709 52.8193 158.318 52.991C158.302 52.9937 158.285 52.9901 158.272 52.981V52.976ZM161.914 53.886C161.833 53.0178 161.918 52.1421 162.162 51.305C162.405 52.1423 162.489 53.0178 162.409 53.886C162.489 54.7543 162.405 55.6298 162.162 56.467C161.918 55.6303 161.834 54.755 161.914 53.887V53.886ZM3.87482 52.488L1.29382 54.5C0.741817 59.288 7.08382 60.448 7.08382 60.448L8.22882 57.315C4.42382 56.97 3.87482 52.488 3.87482 52.488ZM49.1988 105.359C49.1988 94.3163 53.5856 83.7259 61.3941 75.9176C69.2026 68.1093 79.7931 63.7228 90.8358 63.723C101.879 63.7228 112.469 68.1093 120.278 75.9176C128.086 83.7259 132.473 94.3163 132.473 105.359C132.473 128.355 113.831 146.996 90.8358 146.996C67.8403 146.996 49.1988 128.355 49.1988 105.359ZM22.6178 96.8481L22.4618 93.8071C22.4618 93.8071 28.1458 93.382 29.3798 97.758L27.9448 100.134C27.9448 100.134 25.9038 96.2821 22.6178 96.8481ZM143.218 87.6767L143.218 87.678L143.216 87.677L143.218 87.6767ZM143.218 87.6767L143.062 84.636C143.062 84.636 148.746 84.2111 149.982 88.5861L148.547 90.9621C148.547 90.9621 146.503 87.1105 143.218 87.6767ZM181.765 71.178L182.511 69.248C182.511 69.248 186.152 70.558 185.711 73.612L184.163 74.688C184.163 74.688 183.958 71.736 181.763 71.178H181.765ZM164.464 51.334C164.36 51.421 164.679 51.976 165.179 52.576V52.577C165.628 53.121 166.08 53.512 166.24 53.512C166.254 53.5127 166.267 53.5085 166.278 53.5C166.383 53.412 166.064 52.856 165.564 52.258C165.064 51.66 164.568 51.247 164.464 51.334ZM167.406 49.295C166.55 49.2148 165.688 49.299 164.864 49.543V49.549C165.688 49.7909 166.551 49.8731 167.406 49.791C168.262 49.8713 169.126 49.7871 169.951 49.543C169.126 49.2988 168.262 49.2146 167.406 49.295ZM158.416 46.159C158.328 46.263 158.657 46.684 159.152 47.094L159.153 47.1C159.43 47.3665 159.768 47.5621 160.137 47.67C160.162 47.6725 160.187 47.6641 160.205 47.647C160.292 47.54 159.96 47.124 159.468 46.712C158.976 46.3 158.504 46.055 158.416 46.159ZM164.152 47.542C164.052 47.442 164.397 46.942 164.916 46.419C165.435 45.896 165.933 45.551 166.03 45.648C166.127 45.745 165.787 46.248 165.269 46.769C164.981 47.1145 164.615 47.3852 164.2 47.558C164.185 47.5596 164.17 47.5561 164.158 47.548L164.152 47.542ZM26.6298 38.395C26.1298 37.795 25.8118 37.24 25.9148 37.153C26.0178 37.066 26.5098 37.479 27.0148 38.077C27.5198 38.675 27.8318 39.231 27.7268 39.319C27.7168 39.3274 27.7039 39.3317 27.6908 39.331C27.5368 39.337 27.0898 38.945 26.6358 38.4L26.6298 38.395ZM141.24 35.699L142.447 37.145L142.453 37.152C142.523 37.156 142.591 37.1557 142.656 37.151C145.574 37.151 146.513 33.579 146.513 33.579L144.527 33.005C144.163 35.24 141.24 35.699 141.24 35.699ZM15.6468 35.531C16.4712 35.2869 17.3348 35.2027 18.1908 35.283C19.0465 35.2028 19.9097 35.287 20.7338 35.531C19.9099 35.7762 19.0466 35.8607 18.1908 35.78C17.3375 35.8625 16.4763 35.7807 15.6538 35.539L15.6468 35.531ZM28.8568 35.117C28.0011 35.0368 27.1379 35.1209 26.3138 35.365L26.3208 35.373C27.1432 35.6134 28.0039 35.6949 28.8568 35.613C29.7129 35.6933 30.5764 35.6091 31.4008 35.365C30.5764 35.1209 29.7129 35.0367 28.8568 35.117ZM19.8668 31.981C19.7768 32.087 20.1078 32.506 20.5998 32.916L20.6078 32.924C20.8841 33.1884 21.2193 33.3831 21.5858 33.492C21.6105 33.4949 21.6351 33.4865 21.6528 33.469C21.7408 33.362 21.4088 32.944 20.9178 32.534C20.4268 32.124 19.9568 31.875 19.8668 31.981ZM25.6068 33.364C25.5068 33.264 25.8508 32.764 26.3698 32.241C26.8888 31.718 27.3868 31.373 27.4848 31.47C27.5828 31.567 27.2398 32.07 26.7228 32.591C26.4349 32.936 26.0683 33.2066 25.6538 33.38C25.64 33.3817 25.6259 33.3789 25.6138 33.372L25.6068 33.364Z" fill="#1CAE81"/>
<path d="M73.1698 2.80205L72.7033 2.62212L72.5862 2.92567L72.8163 3.15567L73.1698 2.80205ZM73.9138 0.873047L74.0833 0.402654L73.6233 0.236884L73.4473 0.693119L73.9138 0.873047ZM73.1778 2.81005L72.8243 3.16367L72.9213 3.26056L73.0541 3.29449L73.1778 2.81005ZM75.5668 6.31405L75.0679 6.34743L75.1269 7.22906L75.8523 6.72452L75.5668 6.31405ZM77.1138 5.23805L77.3993 5.64852L77.5776 5.5245L77.6087 5.30953L77.1138 5.23805ZM23.4348 28.611L23.9146 28.4704L23.4331 26.8282L22.9548 28.4713L23.4348 28.611ZM23.1868 31.192L22.6889 31.2379L22.7038 31.3993L22.8105 31.5213L23.1868 31.192ZM23.6838 31.192L23.186 31.1457L23.1817 31.1921L23.186 31.2385L23.6838 31.192ZM23.4348 33.773L22.9544 33.9115L23.4304 35.5641L23.9146 33.9138L23.4348 33.773ZM23.1938 31.2L23.6916 31.2468L23.7117 31.0327L23.5701 30.8708L23.1938 31.2ZM93.9398 33.471L93.9806 32.9727L93.1011 32.9007L93.4914 33.6922L93.9398 33.471ZM95.8008 37.245L96.256 37.0382L96.2528 37.031L96.2493 37.0239L95.8008 37.245ZM102.487 29.352L102.734 28.9176L102.245 28.6387L102.026 29.1579L102.487 29.352ZM106.497 31.637L106.937 31.8744L107.169 31.4445L106.744 31.2026L106.497 31.637ZM97.9968 37.579L97.9969 37.079H97.9962L97.9968 37.579ZM95.8058 37.256L95.3506 37.4629L95.4443 37.669L95.6609 37.7346L95.8058 37.256ZM19.7208 38.795L20.1427 38.5266L20.1075 38.4714L20.0593 38.4271L19.7208 38.795ZM20.3908 37.695L20.7595 38.0328H20.7595L20.3908 37.695ZM19.7278 38.806L19.306 39.0745L19.3868 39.2015L19.5243 39.2627L19.7278 38.806ZM19.7678 38.81L19.8769 39.298L19.9239 39.2875L19.9681 39.2682L19.7678 38.81ZM20.7588 38.027L20.3894 37.6901L20.3736 37.7074L20.3594 37.7262L20.7588 38.027ZM21.4268 36.927L21.7654 36.5591L21.7653 36.5591L21.4268 36.927ZM23.3648 39.705L22.8669 39.7508L22.8835 39.9309L23.0114 40.0587L23.3648 39.705ZM23.6128 37.124L24.0929 36.9844L23.6129 35.3346L23.1327 36.9843L23.6128 37.124ZM23.3708 39.711L23.8686 39.7577L23.8906 39.5236L23.7243 39.3574L23.3708 39.711ZM23.6128 42.286L23.1324 42.4246L23.6106 44.0822L24.0929 42.4258L23.6128 42.286ZM23.8598 39.705L23.3619 39.6589L23.3577 39.7051L23.362 39.7512L23.8598 39.705ZM161.986 42.789L162.466 42.6494L161.988 41.0054L161.506 42.6484L161.986 42.789ZM161.738 45.37L161.24 45.4167L161.242 45.4343L161.245 45.4516L161.738 45.37ZM162.233 45.37L161.735 45.3239L161.731 45.37L161.735 45.4162L162.233 45.37ZM161.986 47.951L161.506 48.0914L161.987 49.7366L162.466 48.0907L161.986 47.951ZM161.739 45.376L162.237 45.4226L162.243 45.3582L162.232 45.2945L161.739 45.376ZM59.2138 45.435L59.5406 45.0566L59.3765 44.9149L59.161 44.9378L59.2138 45.435ZM55.7788 49.615L55.2811 49.5676L55.2347 50.0542L55.7201 50.1116L55.7788 49.615ZM60.6408 46.667L60.7973 47.1419L61.6359 46.8656L60.9676 46.2886L60.6408 46.667ZM57.8338 49.858L57.7751 50.3546L58.3346 50.4207L58.3338 49.8574L57.8338 49.858ZM154.198 49.709L154.056 49.2296L153.698 49.3357V49.709H154.198ZM156.742 49.461L156.695 49.9589L156.742 49.9632L156.789 49.9589L156.742 49.461ZM154.198 49.714H153.698V50.0877L154.056 50.1935L154.198 49.714ZM156.742 49.958L156.789 49.4603L156.741 49.4558L156.694 49.4604L156.742 49.958ZM159.285 49.709L159.428 50.1882L161.041 49.7078L159.427 49.2296L159.285 49.709ZM158.272 52.976H158.772V52.7566L158.61 52.6081L158.272 52.976ZM159.977 51.108L160.312 50.7368L160.312 50.7368L159.977 51.108ZM159.307 52.208L158.938 51.8703L158.922 51.8881L158.907 51.9075L159.307 52.208ZM158.318 52.991L158.399 53.4845L158.461 53.4743L158.519 53.4489L158.318 52.991ZM158.272 52.981H157.772V53.2478L157.993 53.3963L158.272 52.981ZM162.162 51.305L162.642 51.1654L162.163 49.5174L161.682 51.165L162.162 51.305ZM161.914 53.886H162.414V53.863L162.412 53.84L161.914 53.886ZM162.409 53.886L161.911 53.84L161.907 53.886L161.911 53.9321L162.409 53.886ZM162.162 56.467L161.682 56.6071L162.163 58.255L162.642 56.6067L162.162 56.467ZM161.914 53.887L162.412 53.9331L162.414 53.9101V53.887H161.914ZM1.29382 54.5L0.986413 54.1057L0.821112 54.2346L0.797107 54.4428L1.29382 54.5ZM3.87482 52.488L4.37111 52.4273L4.26376 51.5509L3.56741 52.0937L3.87482 52.488ZM7.08382 60.448L6.99386 60.9399L7.40868 61.0158L7.55344 60.6197L7.08382 60.448ZM8.22882 57.315L8.69844 57.4867L8.92168 56.8758L8.27397 56.8171L8.22882 57.315ZM90.8358 63.723L90.8358 64.223H90.8358L90.8358 63.723ZM120.278 75.9176L119.924 76.2711V76.2712L120.278 75.9176ZM22.4618 93.8071L22.4245 93.3084L21.9375 93.3449L21.9625 93.8327L22.4618 93.8071ZM22.6178 96.8481L22.1185 96.8737L22.1473 97.4365L22.7027 97.3408L22.6178 96.8481ZM29.3798 97.758L29.8078 98.0165L29.9199 97.831L29.861 97.6223L29.3798 97.758ZM27.9448 100.134L27.503 100.368L27.9164 101.148L28.3728 100.393L27.9448 100.134ZM143.218 87.678L142.994 88.1253L143.756 88.5063L143.717 87.6552L143.218 87.678ZM143.216 87.677L143.13 87.1844L141.632 87.444L142.992 88.1243L143.216 87.677ZM143.062 84.636L143.025 84.1374L142.537 84.1739L142.562 84.6617L143.062 84.636ZM149.982 88.5861L150.41 88.8445L150.522 88.6589L150.463 88.4501L149.982 88.5861ZM148.547 90.9621L148.105 91.1965L148.519 91.9757L148.975 91.2205L148.547 90.9621ZM182.511 69.248L182.68 68.7776L182.221 68.6122L182.044 69.0678L182.511 69.248ZM181.765 71.178V71.678H182.108L182.231 71.3583L181.765 71.178ZM185.711 73.612L185.996 74.0226L186.175 73.8986L186.206 73.6835L185.711 73.612ZM184.163 74.688L183.664 74.7227L183.725 75.6013L184.448 75.0986L184.163 74.688ZM181.763 71.178V70.678L181.64 71.6626L181.763 71.178ZM165.179 52.576H165.679V52.395L165.563 52.256L165.179 52.576ZM165.179 52.577H164.679V52.7567L164.793 52.8953L165.179 52.577ZM166.24 53.512L166.265 53.0127L166.253 53.012H166.24V53.512ZM166.278 53.5L166.586 53.894L166.592 53.8888L166.599 53.8833L166.278 53.5ZM164.864 49.543L164.722 49.0636L164.364 49.1697V49.543H164.864ZM167.406 49.295L167.359 49.7929L167.406 49.7972L167.453 49.7929L167.406 49.295ZM164.864 49.549H164.364V49.9234L164.723 50.0288L164.864 49.549ZM167.406 49.791L167.452 49.2932L167.405 49.2888L167.358 49.2933L167.406 49.791ZM169.951 49.543L170.093 50.0225L171.712 49.5432L170.093 49.0636L169.951 49.543ZM159.152 47.094L159.645 47.0125L159.615 46.8281L159.471 46.709L159.152 47.094ZM159.153 47.1L158.66 47.1816L158.687 47.3455L158.806 47.4606L159.153 47.1ZM160.137 47.67L159.996 48.1499L160.041 48.163L160.087 48.1676L160.137 47.67ZM160.205 47.647L160.546 48.0124L160.571 47.989L160.593 47.9625L160.205 47.647ZM159.468 46.712L159.147 47.0954V47.0954L159.468 46.712ZM164.916 46.419L165.271 46.7712V46.7712L164.916 46.419ZM164.152 47.542L164.505 47.1886L164.505 47.1885L164.152 47.542ZM166.03 45.648L165.676 46.0016V46.0016L166.03 45.648ZM165.269 46.769L164.914 46.4165L164.899 46.4322L164.884 46.4493L165.269 46.769ZM164.2 47.558L164.252 48.0553L164.325 48.0477L164.392 48.0196L164.2 47.558ZM164.158 47.548L163.804 47.9015L163.842 47.9394L163.887 47.9684L164.158 47.548ZM26.6298 38.395L26.2457 38.7151L26.2748 38.75L26.3097 38.7791L26.6298 38.395ZM27.0148 38.077L27.3968 37.7544L27.0148 38.077ZM27.7268 39.319L28.0471 39.703L28.048 39.7023L27.7268 39.319ZM27.6908 39.331L27.7166 38.8317L27.694 38.8305L27.6714 38.8314L27.6908 39.331ZM26.6358 38.4L27.02 38.08L26.9909 38.0451L26.9559 38.016L26.6358 38.4ZM142.447 37.145L142.063 37.4655L142.067 37.4703L142.447 37.145ZM141.24 35.699L141.162 35.2051L140.29 35.342L140.856 36.0195L141.24 35.699ZM142.453 37.152L142.073 37.4773L142.212 37.6392L142.425 37.6512L142.453 37.152ZM142.656 37.151V36.651H142.638L142.62 36.6523L142.656 37.151ZM146.513 33.579L146.996 33.7062L147.12 33.2342L146.652 33.0987L146.513 33.579ZM144.527 33.005L144.666 32.5247L144.124 32.3681L144.033 32.9247L144.527 33.005ZM18.1908 35.283L18.1441 35.7809L18.1908 35.7852L18.2375 35.7809L18.1908 35.283ZM15.6468 35.531L15.5048 35.0516L14.7568 35.2732L15.2705 35.8603L15.6468 35.531ZM20.7338 35.531L20.8764 36.0103L22.491 35.5299L20.8758 35.0516L20.7338 35.531ZM18.1908 35.78L18.2377 35.2823L18.1902 35.2778L18.1427 35.2824L18.1908 35.78ZM15.6538 35.539L15.2775 35.8683L15.3733 35.9778L15.5129 36.0188L15.6538 35.539ZM26.3138 35.365L26.1718 34.8856L25.4238 35.1072L25.9375 35.6943L26.3138 35.365ZM28.8568 35.117L28.8101 35.6149L28.8568 35.6192L28.9035 35.6149L28.8568 35.117ZM26.3208 35.373L25.9445 35.7023L26.0406 35.8121L26.1805 35.853L26.3208 35.373ZM28.8568 35.613L28.9035 35.1152L28.8563 35.1108L28.8091 35.1153L28.8568 35.613ZM31.4008 35.365L31.5427 35.8445L33.162 35.3652L31.5428 34.8856L31.4008 35.365ZM20.5998 32.916L20.9534 32.5625L20.9373 32.5465L20.9199 32.5319L20.5998 32.916ZM19.8668 31.981L20.248 32.3047L20.248 32.3047L19.8668 31.981ZM20.6078 32.924L20.2542 33.2777L20.2621 33.2853L20.6078 32.924ZM21.5858 33.492L21.4434 33.9713L21.4849 33.9837L21.528 33.9887L21.5858 33.492ZM21.6528 33.469L22.0035 33.8255L22.0223 33.807L22.039 33.7866L21.6528 33.469ZM20.9178 32.534L20.5973 32.9178L20.9178 32.534ZM26.3698 32.241L26.0149 31.8889L26.3698 32.241ZM25.6068 33.364L25.9831 33.0348L25.9721 33.0223L25.9604 33.0105L25.6068 33.364ZM27.4848 31.47L27.8366 31.1147L27.8366 31.1147L27.4848 31.47ZM26.7228 32.591L26.3679 32.2389L26.3527 32.2542L26.3389 32.2707L26.7228 32.591ZM25.6538 33.38L25.7145 33.8763L25.7831 33.868L25.8468 33.8413L25.6538 33.38ZM25.6138 33.372L25.2375 33.7013L25.2933 33.765L25.3669 33.8068L25.6138 33.372ZM73.6363 2.98197L74.3803 1.05297L73.4473 0.693119L72.7033 2.62212L73.6363 2.98197ZM73.5313 2.45642L73.5233 2.44842L72.8163 3.15567L72.8243 3.16367L73.5313 2.45642ZM75.5668 6.31405C76.0657 6.28066 76.0657 6.28047 76.0657 6.28027C76.0657 6.28019 76.0657 6.27998 76.0656 6.27982C76.0656 6.27949 76.0656 6.27911 76.0656 6.2787C76.0655 6.27786 76.0654 6.27684 76.0654 6.27565C76.0652 6.27326 76.0649 6.27016 76.0646 6.26636C76.064 6.25878 76.0632 6.24842 76.062 6.23546C76.0596 6.20954 76.056 6.17315 76.0506 6.12762C76.0398 6.03665 76.022 5.90863 75.9934 5.75427C75.9365 5.44704 75.8356 5.02785 75.6584 4.58593C75.3085 3.71362 74.6212 2.66272 73.3016 2.32561L73.0541 3.29449C73.9265 3.51737 74.4336 4.21847 74.7302 4.95816C74.8763 5.32224 74.9616 5.67406 75.0101 5.93632C75.0343 6.06671 75.049 6.17307 75.0575 6.24529C75.0618 6.28135 75.0645 6.30876 75.0661 6.32624C75.0669 6.33497 75.0674 6.34122 75.0677 6.34481C75.0679 6.3466 75.068 6.34773 75.068 6.34817C75.068 6.3484 75.068 6.34845 75.068 6.34832C75.068 6.34826 75.068 6.34816 75.068 6.34801C75.068 6.34793 75.068 6.34779 75.068 6.34775C75.0679 6.3476 75.0679 6.34743 75.5668 6.31405ZM76.8283 4.82757L75.2813 5.90357L75.8523 6.72452L77.3993 5.64852L76.8283 4.82757ZM73.9138 0.873047C73.7443 1.34344 73.7441 1.34338 73.744 1.34332C73.744 1.34331 73.7438 1.34326 73.7438 1.34324C73.7436 1.34319 73.7436 1.34316 73.7435 1.34316C73.7435 1.34314 73.7437 1.3432 73.744 1.34334C73.7448 1.34363 73.7464 1.34422 73.7489 1.34513C73.7537 1.34695 73.7618 1.35003 73.773 1.35438C73.7953 1.36307 73.8297 1.37683 73.8743 1.39573C73.9636 1.43358 74.0932 1.49181 74.2485 1.5711C74.5608 1.73049 74.9686 1.97071 75.3599 2.29544C76.1456 2.94749 76.8046 3.88166 76.6189 5.16656L77.6087 5.30953C77.8641 3.54144 76.923 2.2931 75.9985 1.5259C75.5347 1.141 75.0598 0.862419 74.7031 0.680403C74.524 0.588983 74.3727 0.520861 74.2645 0.475037C74.2104 0.452104 74.167 0.43469 74.1362 0.422678C74.1208 0.41667 74.1085 0.412008 74.0996 0.408677C74.0952 0.407011 74.0916 0.405678 74.0889 0.404675C74.0875 0.404173 74.0863 0.403754 74.0854 0.403418C74.085 0.403249 74.0846 0.403102 74.0842 0.402974C74.084 0.402911 74.0838 0.402831 74.0837 0.402799C74.0835 0.402724 74.0833 0.402654 73.9138 0.873047ZM22.9548 28.4713C22.6935 29.3686 22.6033 30.3071 22.6889 31.2379L23.6847 31.1462C23.6106 30.3404 23.6887 29.5278 23.9149 28.7508L22.9548 28.4713ZM24.1817 31.2384C24.2684 30.3071 24.1778 29.3679 23.9146 28.4704L22.955 28.7517C23.1826 29.5279 23.261 30.3403 23.186 31.1457L24.1817 31.2384ZM23.9146 33.9138C24.1779 33.0163 24.2685 32.0769 24.1817 31.1456L23.186 31.2385C23.2611 32.0438 23.1827 32.8561 22.955 33.6323L23.9146 33.9138ZM22.696 31.1533C22.6089 32.0807 22.6965 33.0163 22.9544 33.9115L23.9153 33.6346C23.692 32.8597 23.6162 32.0497 23.6916 31.2468L22.696 31.1533ZM22.8105 31.5213L22.8175 31.5293L23.5701 30.8708L23.5631 30.8628L22.8105 31.5213ZM93.4914 33.6922L95.3524 37.4662L96.2493 37.0239L94.3883 33.2499L93.4914 33.6922ZM102.026 29.1579C101.134 31.2739 99.1843 32.2406 97.3621 32.6717C96.4571 32.8858 95.6072 32.9613 94.9821 32.9828C94.6703 32.9935 94.4163 32.9907 94.2419 32.9853C94.1547 32.9827 94.0875 32.9794 94.043 32.9768C94.0208 32.9755 94.0043 32.9744 93.9937 32.9737C93.9885 32.9733 93.9847 32.973 93.9825 32.9729C93.9814 32.9728 93.9807 32.9727 93.9804 32.9727C93.9802 32.9727 93.9802 32.9727 93.9802 32.9727C93.9802 32.9727 93.9803 32.9727 93.9803 32.9727C93.9805 32.9727 93.9806 32.9727 93.9398 33.471C93.899 33.9694 93.8992 33.9694 93.8995 33.9694C93.8996 33.9694 93.8998 33.9694 93.9 33.9695C93.9005 33.9695 93.901 33.9695 93.9016 33.9696C93.9029 33.9697 93.9046 33.9698 93.9067 33.97C93.9108 33.9703 93.9165 33.9707 93.9238 33.9712C93.9383 33.9722 93.959 33.9736 93.9854 33.9751C94.0384 33.9782 94.1145 33.9819 94.2112 33.9849C94.4045 33.9908 94.6803 33.9937 95.0164 33.9822C95.6871 33.9592 96.6059 33.8783 97.5923 33.6449C99.5529 33.181 101.876 32.0882 102.948 29.5462L102.026 29.1579ZM106.744 31.2026L102.734 28.9176L102.239 29.7865L106.249 32.0715L106.744 31.2026ZM97.9967 38.079C100.838 38.0796 103.084 36.487 104.588 34.9593C105.345 34.1906 105.93 33.4236 106.325 32.849C106.523 32.5613 106.674 32.3207 106.777 32.1506C106.828 32.0656 106.867 31.9981 106.894 31.9511C106.907 31.9276 106.918 31.9092 106.925 31.8963C106.928 31.8899 106.931 31.8848 106.933 31.8811C106.934 31.8793 106.935 31.8778 106.936 31.8767C106.936 31.8762 106.936 31.8757 106.936 31.8753C106.937 31.8751 106.937 31.8749 106.937 31.8748C106.937 31.8746 106.937 31.8744 106.497 31.637C106.057 31.3997 106.057 31.3995 106.057 31.3994C106.057 31.3994 106.057 31.3993 106.057 31.3993C106.057 31.3993 106.057 31.3994 106.057 31.3995C106.057 31.3999 106.056 31.4005 106.056 31.4016C106.055 31.4036 106.053 31.4071 106.05 31.4119C106.045 31.4214 106.036 31.4364 106.025 31.4565C106.002 31.4965 105.967 31.5567 105.921 31.6342C105.827 31.7892 105.687 32.0128 105.501 32.2822C105.13 32.822 104.582 33.5406 103.876 34.2576C102.454 35.7011 100.45 37.0795 97.9969 37.079L97.9967 38.079ZM95.6609 37.7346C96.4185 37.9639 97.2059 38.08 97.9974 38.079L97.9962 37.079C97.3032 37.0799 96.6139 36.9783 95.9507 36.7775L95.6609 37.7346ZM95.3456 37.4519L95.3506 37.4629L96.261 37.0492L96.256 37.0382L95.3456 37.4519ZM20.0593 38.4271C20.1844 38.5421 20.2005 38.68 20.2015 38.7328C20.2025 38.7859 20.1913 38.8155 20.1937 38.8079C20.1976 38.7958 20.2172 38.7484 20.2693 38.6627C20.3692 38.4984 20.5399 38.2724 20.7595 38.0328L20.0222 37.3573C19.7717 37.6306 19.5574 37.9087 19.4149 38.1431C19.3457 38.2568 19.2797 38.3825 19.2407 38.5051C19.2217 38.5648 19.1998 38.6522 19.2017 38.752C19.2036 38.8515 19.2322 39.025 19.3823 39.163L20.0593 38.4271ZM20.1497 38.5376L20.1427 38.5266L19.299 39.0635L19.306 39.0745L20.1497 38.5376ZM19.6588 38.3221C19.7501 38.3017 19.8457 38.3112 19.9314 38.3493L19.5243 39.2627C19.635 39.3121 19.7587 39.3244 19.8769 39.298L19.6588 38.3221ZM20.3594 37.7262C20.1537 37.9994 19.8809 38.2149 19.5675 38.3519L19.9681 39.2682C20.4391 39.0623 20.8489 38.7384 21.1582 38.3279L20.3594 37.7262ZM21.0883 37.295C20.9633 37.18 20.9471 37.0422 20.9461 36.9894C20.9451 36.9363 20.9563 36.9067 20.9539 36.9144C20.95 36.9266 20.9304 36.974 20.8784 37.0598C20.7786 37.2242 20.6082 37.4503 20.3894 37.6901L21.1282 38.364C21.3775 38.0908 21.5911 37.8129 21.7333 37.5786C21.8022 37.465 21.8682 37.3393 21.907 37.2168C21.926 37.1571 21.9479 37.0697 21.9459 36.97C21.944 36.8705 21.9154 36.6971 21.7654 36.5591L21.0883 37.295ZM20.7595 38.0328C20.9797 37.7924 21.1902 37.601 21.3456 37.4856C21.4267 37.4255 21.4722 37.4014 21.4841 37.3964C21.4916 37.3932 21.4627 37.4074 21.4091 37.4113C21.3554 37.4152 21.2148 37.4114 21.0883 37.295L21.7653 36.5591C21.6139 36.4197 21.4368 36.4066 21.3367 36.4139C21.2366 36.4212 21.1512 36.4514 21.0936 36.4758C20.9753 36.526 20.8562 36.6035 20.7495 36.6827C20.5294 36.8461 20.2719 37.0846 20.0222 37.3573L20.7595 38.0328ZM23.8627 39.6593C23.7887 38.8534 23.8667 38.0408 24.0929 37.2638L23.1327 36.9843C22.8715 37.8817 22.7814 38.8201 22.8669 39.7508L23.8627 39.6593ZM23.7243 39.3574L23.7183 39.3514L23.0114 40.0587L23.0174 40.0647L23.7243 39.3574ZM24.0932 42.1475C23.8695 41.3719 23.7933 40.5613 23.8686 39.7577L22.873 39.6644C22.786 40.5926 22.874 41.5289 23.1324 42.4246L24.0932 42.1475ZM23.362 39.7512C23.4367 40.5569 23.359 41.3694 23.1328 42.1463L24.0929 42.4258C24.3542 41.5283 24.444 40.5896 24.3577 39.6589L23.362 39.7512ZM23.1327 37.2637C23.3588 38.0407 23.4366 38.8532 23.3619 39.6589L24.3577 39.7511C24.4439 38.8204 24.354 37.8818 24.0929 36.9844L23.1327 37.2637ZM161.506 42.6484C161.243 43.546 161.153 44.4854 161.24 45.4167L162.236 45.3233C162.16 44.5181 162.238 43.7058 162.466 42.9297L161.506 42.6484ZM162.731 45.4162C162.817 44.4854 162.727 43.5468 162.466 42.6494L161.506 42.9287C161.732 43.7057 161.81 44.5182 161.735 45.3239L162.731 45.4162ZM162.466 48.0907C162.727 47.1933 162.817 46.2547 162.731 45.3239L161.735 45.4162C161.81 46.2219 161.732 47.0344 161.506 47.8114L162.466 48.0907ZM161.241 45.3295C161.154 46.2586 161.244 47.1957 161.506 48.0914L162.466 47.8107C162.239 47.0363 162.162 46.226 162.237 45.4226L161.241 45.3295ZM161.245 45.4516L161.246 45.4576L162.232 45.2945L162.231 45.2885L161.245 45.4516ZM59.161 44.9378C57.3839 45.1267 56.4078 46.3475 55.8939 47.4334C55.6361 47.9782 55.4841 48.5074 55.3963 48.8981C55.3522 49.0944 55.3237 49.258 55.3062 49.3741C55.2974 49.4322 55.2913 49.4786 55.2873 49.5114C55.2853 49.5278 55.2839 49.5409 55.2828 49.5503C55.2823 49.5551 55.2819 49.5589 55.2816 49.5618C55.2815 49.5632 55.2814 49.5644 55.2813 49.5654C55.2812 49.5659 55.2812 49.5663 55.2812 49.5667C55.2811 49.5669 55.2811 49.5671 55.2811 49.5672C55.2811 49.5674 55.2811 49.5676 55.7788 49.615C56.2766 49.6624 56.2765 49.6626 56.2765 49.6628C56.2765 49.6628 56.2765 49.663 56.2765 49.663C56.2765 49.6632 56.2765 49.6632 56.2765 49.6633C56.2765 49.6633 56.2765 49.6631 56.2765 49.6627C56.2766 49.6619 56.2768 49.6602 56.2771 49.6576C56.2776 49.6525 56.2786 49.6438 56.28 49.632C56.2829 49.6082 56.2877 49.5714 56.295 49.5235C56.3095 49.4276 56.3337 49.2876 56.3719 49.1174C56.4488 48.7753 56.5803 48.3207 56.7978 47.8612C57.2344 46.9386 57.9757 46.0694 59.2667 45.9322L59.161 44.9378ZM60.9676 46.2886L59.5406 45.0566L58.8871 45.8135L60.3141 47.0455L60.9676 46.2886ZM58.3338 49.8574C58.3326 48.9559 58.8871 48.289 59.5318 47.8164C59.849 47.5839 60.1696 47.4133 60.4122 47.3007C60.5329 47.2447 60.6326 47.2039 60.7006 47.1775C60.7346 47.1644 60.7605 47.1549 60.7771 47.149C60.7854 47.146 60.7914 47.144 60.7948 47.1428C60.7965 47.1422 60.7976 47.1418 60.798 47.1417C60.7982 47.1416 60.7983 47.1416 60.7982 47.1416C60.7981 47.1417 60.798 47.1417 60.7979 47.1417C60.7978 47.1418 60.7976 47.1418 60.7976 47.1418C60.7975 47.1419 60.7973 47.1419 60.6408 46.667C60.4843 46.1922 60.4841 46.1922 60.484 46.1923C60.4839 46.1923 60.4837 46.1924 60.4835 46.1924C60.4832 46.1925 60.4829 46.1927 60.4825 46.1928C60.4817 46.1931 60.4807 46.1934 60.4796 46.1938C60.4773 46.1945 60.4743 46.1955 60.4707 46.1968C60.4635 46.1992 60.4537 46.2026 60.4414 46.207C60.4168 46.2158 60.3824 46.2284 60.3396 46.245C60.2539 46.2781 60.1341 46.3273 59.9914 46.3936C59.7073 46.5254 59.3255 46.7278 58.9406 47.0099C58.1811 47.5666 57.332 48.4952 57.3338 49.8587L58.3338 49.8574ZM55.7201 50.1116L57.7751 50.3546L57.8925 49.3615L55.8375 49.1185L55.7201 50.1116ZM154.34 50.1884C155.103 49.9623 155.903 49.8844 156.695 49.9589L156.789 48.9632C155.869 48.8768 154.941 48.9673 154.056 49.2296L154.34 50.1884ZM154.698 49.714V49.709H153.698V49.714H154.698ZM156.694 49.4604C155.902 49.5367 155.103 49.46 154.34 49.2345L154.056 50.1935C154.942 50.4554 155.87 50.5444 156.79 50.4557L156.694 49.4604ZM159.142 49.2298C158.38 49.4569 157.581 49.5351 156.789 49.4603L156.695 50.4558C157.614 50.5428 158.542 50.4519 159.428 50.1882L159.142 49.2298ZM156.789 49.9589C157.581 49.8844 158.38 49.9624 159.143 50.1884L159.427 49.2296C158.542 48.9673 157.614 48.8769 156.695 48.9632L156.789 49.9589ZM158.57 51.5391C158.321 51.8123 158.108 52.0902 157.965 52.3245C157.896 52.4381 157.83 52.5638 157.792 52.6863C157.773 52.746 157.751 52.8334 157.753 52.9331C157.755 53.0326 157.783 53.206 157.933 53.344L158.61 52.6081C158.735 52.7231 158.751 52.861 158.753 52.9137C158.754 52.9668 158.742 52.9964 158.745 52.9887C158.749 52.9765 158.768 52.9291 158.82 52.8433C158.92 52.6789 159.09 52.4528 159.309 52.213L158.57 51.5391ZM160.312 50.7368C160.161 50.6007 159.986 50.5877 159.886 50.5949C159.786 50.6021 159.701 50.632 159.643 50.6564C159.524 50.7066 159.405 50.7842 159.298 50.8635C159.077 51.0272 158.82 51.266 158.57 51.5391L159.309 52.213C159.528 51.9731 159.738 51.7819 159.893 51.6668C159.974 51.6068 160.02 51.5828 160.032 51.5778C160.039 51.5746 160.011 51.5885 159.958 51.5923C159.905 51.5961 159.767 51.5924 159.642 51.4793L160.312 50.7368ZM159.675 52.5458C159.926 52.2728 160.14 51.9948 160.283 51.7604C160.353 51.6468 160.419 51.5206 160.458 51.3974C160.477 51.3373 160.499 51.249 160.496 51.1481C160.494 51.0465 160.463 50.8733 160.312 50.7368L159.642 51.4793C159.516 51.3658 159.498 51.2282 159.497 51.1732C159.495 51.119 159.507 51.0885 159.505 51.0958C159.501 51.1073 159.482 51.1542 159.429 51.24C159.329 51.4043 159.158 51.6303 158.938 51.8703L159.675 52.5458ZM158.519 53.4489C158.989 53.2427 159.398 52.9188 159.706 52.5086L158.907 51.9075C158.702 52.1804 158.43 52.3959 158.117 52.5332L158.519 53.4489ZM157.993 53.3963C158.112 53.4762 158.257 53.5076 158.399 53.4845L158.237 52.4976C158.346 52.4797 158.458 52.504 158.55 52.5658L157.993 53.3963ZM157.772 52.976V52.981H158.772V52.976H157.772ZM161.682 51.165C161.42 52.0624 161.33 53.0012 161.416 53.9321L162.412 53.84C162.337 53.0343 162.415 52.2218 162.642 51.4451L161.682 51.165ZM162.907 53.9321C162.993 53.0014 162.903 52.0629 162.642 51.1654L161.682 51.4447C161.908 52.2217 161.985 53.0342 161.911 53.84L162.907 53.9321ZM162.642 56.6067C162.903 55.7092 162.993 54.7707 162.907 53.84L161.911 53.9321C161.985 54.7378 161.908 55.5504 161.682 56.3274L162.642 56.6067ZM161.416 53.841C161.33 54.7716 161.42 55.71 161.682 56.6071L162.642 56.327C162.415 55.5506 162.337 54.7384 162.412 53.9331L161.416 53.841ZM161.414 53.886V53.887H162.414V53.886H161.414ZM1.60122 54.8944L4.18222 52.8824L3.56741 52.0937L0.986413 54.1057L1.60122 54.8944ZM7.08382 60.448C7.17378 59.9562 7.17393 59.9562 7.17406 59.9563C7.17408 59.9563 7.17418 59.9563 7.17421 59.9563C7.17426 59.9563 7.17421 59.9563 7.17407 59.9563C7.17378 59.9562 7.17312 59.9561 7.17209 59.9559C7.17003 59.9555 7.16649 59.9548 7.16151 59.9538C7.15155 59.9519 7.13587 59.9488 7.11487 59.9444C7.07285 59.9356 7.00959 59.9218 6.9283 59.9025C6.76558 59.8637 6.53134 59.8027 6.25098 59.7149C5.68802 59.5385 4.95023 59.2574 4.23457 58.8381C2.79841 57.9967 1.5472 56.6679 1.79053 54.5573L0.797107 54.4428C0.48843 57.1202 2.13222 58.7654 3.72906 59.701C4.5299 60.1702 5.34311 60.4784 5.95203 60.6691C6.2576 60.7649 6.51452 60.8319 6.69648 60.8752C6.78752 60.8969 6.85998 60.9127 6.91059 60.9233C6.9359 60.9286 6.95576 60.9326 6.96977 60.9353C6.97678 60.9367 6.98232 60.9377 6.98635 60.9385C6.98837 60.9389 6.99 60.9392 6.99126 60.9394C6.99188 60.9395 6.99241 60.9396 6.99285 60.9397C6.99306 60.9397 6.99332 60.9398 6.99342 60.9398C6.99365 60.9398 6.99386 60.9399 7.08382 60.448ZM7.7592 57.1434L6.6142 60.2764L7.55344 60.6197L8.69844 57.4867L7.7592 57.1434ZM3.87482 52.488C3.37853 52.5488 3.37855 52.5491 3.37858 52.5493C3.37859 52.5494 3.37863 52.5496 3.37865 52.5498C3.3787 52.5503 3.37876 52.5507 3.37883 52.5513C3.37896 52.5524 3.37914 52.5537 3.37935 52.5553C3.37977 52.5586 3.38034 52.5629 3.38107 52.5683C3.38253 52.5791 3.38464 52.594 3.38747 52.6128C3.39314 52.6505 3.40173 52.7039 3.41393 52.7709C3.43831 52.9047 3.47721 53.0935 3.53622 53.3199C3.65378 53.7709 3.85341 54.3803 4.18255 55.0052C4.84163 56.2565 6.05267 57.6198 8.18367 57.813L8.27397 56.8171C6.59997 56.6653 5.634 55.6151 5.06733 54.5392C4.7836 54.0005 4.60816 53.4677 4.50389 53.0676C4.45197 52.8684 4.41826 52.7043 4.39775 52.5917C4.3875 52.5355 4.38058 52.4922 4.37635 52.4641C4.37424 52.45 4.37279 52.4398 4.37195 52.4335C4.37152 52.4304 4.37125 52.4283 4.37111 52.4273C4.37104 52.4267 4.37101 52.4265 4.37101 52.4265C4.37101 52.4265 4.37102 52.4265 4.37103 52.4267C4.37104 52.4267 4.37106 52.4269 4.37106 52.4269C4.37109 52.4271 4.37111 52.4273 3.87482 52.488ZM61.0405 75.564C53.1383 83.4661 48.6988 94.1837 48.6988 105.359H49.6988C49.6988 94.4489 54.0329 83.9857 61.7476 76.2711L61.0405 75.564ZM90.8358 63.223C79.6605 63.2228 68.9428 67.662 61.0405 75.564L61.7476 76.2711C69.4623 68.5566 79.9257 64.2228 90.8358 64.223L90.8358 63.223ZM120.631 75.564C112.729 67.662 102.011 63.2228 90.8358 63.223L90.8358 64.223C101.746 64.2228 112.209 68.5566 119.924 76.2711L120.631 75.564ZM132.973 105.359C132.973 94.1837 128.533 83.4661 120.631 75.564L119.924 76.2712C127.639 83.9857 131.973 94.4489 131.973 105.359H132.973ZM90.8358 147.496C114.107 147.496 132.973 128.631 132.973 105.359H131.973C131.973 128.078 113.555 146.496 90.8358 146.496V147.496ZM48.6988 105.359C48.6988 128.631 67.5642 147.496 90.8358 147.496V146.496C68.1165 146.496 49.6988 128.078 49.6988 105.359H48.6988ZM21.9625 93.8327L22.1185 96.8737L23.1172 96.8224L22.9612 93.7814L21.9625 93.8327ZM29.861 97.6223C29.1777 95.1992 27.2553 94.1252 25.5928 93.66C24.7597 93.4269 23.9721 93.3395 23.395 93.3097C23.1056 93.2947 22.8668 93.2942 22.6987 93.2974C22.6146 93.2991 22.5481 93.3017 22.5016 93.3039C22.4783 93.3051 22.4601 93.3061 22.4472 93.3069C22.4407 93.3073 22.4355 93.3077 22.4317 93.3079C22.4299 93.3081 22.4283 93.3082 22.4271 93.3083C22.4265 93.3083 22.426 93.3083 22.4256 93.3084C22.4253 93.3084 22.4251 93.3084 22.425 93.3084C22.4247 93.3084 22.4245 93.3084 22.4618 93.8071C22.4991 94.3057 22.4989 94.3057 22.4988 94.3057C22.4988 94.3057 22.4986 94.3057 22.4986 94.3057C22.4985 94.3057 22.4985 94.3057 22.4986 94.3057C22.4988 94.3057 22.4993 94.3056 22.5001 94.3056C22.5018 94.3055 22.5048 94.3053 22.5092 94.305C22.5178 94.3045 22.5316 94.3037 22.5503 94.3028C22.5877 94.3009 22.6445 94.2987 22.7182 94.2972C22.8658 94.2944 23.0807 94.2948 23.3434 94.3084C23.8707 94.3356 24.5812 94.4154 25.3233 94.6231C26.8114 95.0394 28.3479 95.9409 28.8986 97.8938L29.861 97.6223ZM28.3728 100.393L29.8078 98.0165L28.9518 97.4996L27.5168 99.8756L28.3728 100.393ZM22.7027 97.3408C24.1178 97.0971 25.2957 97.7951 26.1657 98.6379C26.5961 99.0549 26.9331 99.4912 27.1628 99.8247C27.2773 99.9908 27.364 100.13 27.4214 100.226C27.4501 100.274 27.4713 100.311 27.485 100.336C27.4919 100.348 27.4968 100.357 27.4998 100.362C27.5013 100.365 27.5023 100.367 27.5029 100.368C27.5031 100.368 27.5033 100.369 27.5033 100.369C27.5033 100.369 27.5033 100.369 27.5032 100.369C27.5032 100.369 27.5032 100.368 27.5031 100.368C27.5031 100.368 27.503 100.368 27.9448 100.134C28.3866 99.8999 28.3865 99.8998 28.3864 99.8996C28.3864 99.8995 28.3863 99.8993 28.3862 99.8991C28.386 99.8988 28.3858 99.8984 28.3856 99.898C28.3851 99.8971 28.3845 99.896 28.3838 99.8946C28.3823 99.8919 28.3804 99.8883 28.3779 99.8838C28.373 99.8747 28.3661 99.8622 28.3572 99.8463C28.3393 99.8145 28.3136 99.7695 28.28 99.7133C28.2129 99.601 28.1146 99.4435 27.9863 99.2574C27.7307 98.8863 27.352 98.395 26.8615 97.9197C25.8894 96.978 24.4039 96.0331 22.5329 96.3553L22.7027 97.3408ZM143.717 87.6552L143.717 87.6539L142.718 87.6995L142.718 87.7009L143.717 87.6552ZM142.992 88.1243L142.994 88.1253L143.441 87.2308L143.439 87.2298L142.992 88.1243ZM143.132 87.1841L143.13 87.1844L143.301 88.1697L143.303 88.1694L143.132 87.1841ZM142.562 84.6617L142.718 87.7023L143.717 87.6511L143.561 84.6104L142.562 84.6617ZM150.463 88.4501C149.779 86.0276 147.856 84.9539 146.193 84.4889C145.36 84.2559 144.572 84.1685 143.995 84.1387C143.706 84.1237 143.467 84.1232 143.299 84.1264C143.215 84.1281 143.148 84.1307 143.102 84.1329C143.078 84.1341 143.06 84.1351 143.047 84.1359C143.041 84.1363 143.036 84.1367 143.032 84.1369C143.03 84.1371 143.028 84.1372 143.027 84.1373C143.027 84.1373 143.026 84.1373 143.026 84.1374C143.025 84.1374 143.025 84.1374 143.025 84.1374C143.025 84.1374 143.025 84.1374 143.062 84.636C143.099 85.1347 143.099 85.1347 143.099 85.1347C143.099 85.1347 143.099 85.1347 143.099 85.1347C143.099 85.1347 143.099 85.1347 143.099 85.1347C143.099 85.1347 143.099 85.1346 143.1 85.1346C143.102 85.1345 143.105 85.1343 143.109 85.134C143.118 85.1335 143.132 85.1327 143.15 85.1318C143.188 85.1299 143.244 85.1277 143.318 85.1262C143.466 85.1234 143.681 85.1238 143.943 85.1373C144.471 85.1646 145.181 85.2443 145.924 85.452C147.412 85.8682 148.949 86.7695 149.501 88.722L150.463 88.4501ZM148.975 91.2205L150.41 88.8445L149.554 88.3276L148.119 90.7036L148.975 91.2205ZM143.303 88.1694C144.717 87.9256 145.896 88.6236 146.766 89.4663C147.197 89.8833 147.534 90.3195 147.765 90.653C147.879 90.8191 147.966 90.9581 148.023 91.0543C148.052 91.1023 148.073 91.1395 148.087 91.1639C148.094 91.1761 148.099 91.1851 148.102 91.1906C148.103 91.1933 148.104 91.1952 148.105 91.1962C148.105 91.1967 148.105 91.197 148.105 91.197C148.105 91.197 148.105 91.197 148.105 91.1969C148.105 91.1969 148.105 91.1967 148.105 91.1967C148.105 91.1966 148.105 91.1965 148.547 90.9621C148.988 90.7276 148.988 90.7275 148.988 90.7273C148.988 90.7272 148.988 90.727 148.988 90.7268C148.988 90.7265 148.988 90.7261 148.987 90.7257C148.987 90.7248 148.986 90.7237 148.986 90.7223C148.984 90.7196 148.982 90.716 148.98 90.7115C148.975 90.7025 148.968 90.6899 148.959 90.674C148.941 90.6422 148.915 90.5972 148.882 90.5411C148.815 90.4288 148.716 90.2713 148.588 90.0852C148.332 89.7142 147.953 89.223 147.462 88.7478C146.489 87.8064 145.003 86.8616 143.133 87.184L143.303 88.1694ZM182.044 69.0678L181.298 70.9978L182.231 71.3583L182.977 69.4283L182.044 69.0678ZM186.206 73.6835C186.461 71.9149 185.52 70.6668 184.595 69.8999C184.132 69.5152 183.657 69.2369 183.3 69.055C183.121 68.9637 182.969 68.8956 182.861 68.8499C182.807 68.827 182.764 68.8096 182.733 68.7976C182.718 68.7916 182.705 68.7869 182.696 68.7836C182.692 68.7819 182.688 68.7806 182.686 68.7796C182.684 68.7791 182.683 68.7787 182.682 68.7783C182.682 68.7782 182.681 68.778 182.681 68.7779C182.681 68.7778 182.681 68.7777 182.68 68.7777C182.68 68.7776 182.68 68.7776 182.511 69.248C182.342 69.7185 182.341 69.7185 182.341 69.7184C182.341 69.7184 182.341 69.7183 182.341 69.7183C182.341 69.7183 182.341 69.7182 182.341 69.7182C182.341 69.7182 182.341 69.7183 182.341 69.7184C182.342 69.7187 182.344 69.7193 182.346 69.7202C182.351 69.722 182.359 69.7251 182.37 69.7294C182.393 69.7381 182.427 69.7519 182.471 69.7707C182.561 69.8085 182.69 69.8667 182.846 69.9459C183.158 70.1051 183.566 70.3451 183.957 70.6696C184.743 71.3213 185.402 72.2551 185.216 73.5406L186.206 73.6835ZM184.448 75.0986L185.996 74.0226L185.425 73.2015L183.877 74.2775L184.448 75.0986ZM181.64 71.6626C182.513 71.8848 183.023 72.5874 183.322 73.3292C183.469 73.6943 183.556 74.0472 183.605 74.3102C183.63 74.441 183.645 74.5477 183.653 74.6201C183.658 74.6563 183.661 74.6838 183.662 74.7014C183.663 74.7101 183.663 74.7164 183.664 74.72C183.664 74.7218 183.664 74.723 183.664 74.7234C183.664 74.7236 183.664 74.7237 183.664 74.7236C183.664 74.7235 183.664 74.7234 183.664 74.7233C183.664 74.7232 183.664 74.723 183.664 74.723C183.664 74.7229 183.664 74.7227 184.163 74.688C184.662 74.6534 184.662 74.6532 184.662 74.653C184.662 74.6529 184.662 74.6527 184.662 74.6526C184.662 74.6522 184.661 74.6519 184.661 74.6515C184.661 74.6506 184.661 74.6496 184.661 74.6484C184.661 74.646 184.661 74.6429 184.661 74.6391C184.66 74.6315 184.659 74.6211 184.658 74.6081C184.655 74.5822 184.652 74.5457 184.646 74.5001C184.635 74.4089 184.617 74.2806 184.588 74.126C184.53 73.8181 184.428 73.398 184.25 72.9554C183.898 72.0817 183.207 71.0293 181.886 70.6935L181.64 71.6626ZM181.765 70.678H181.763V71.678H181.765V70.678ZM165.563 52.256C165.326 51.971 165.139 51.7061 165.028 51.5133C164.971 51.4133 164.946 51.3535 164.938 51.3308C164.934 51.3172 164.945 51.3429 164.944 51.3929C164.944 51.4378 164.932 51.5945 164.785 51.7176L164.143 50.9505C163.97 51.0953 163.945 51.2884 163.944 51.3826C163.943 51.482 163.965 51.57 163.984 51.6301C164.023 51.7546 164.09 51.8874 164.161 52.012C164.309 52.2684 164.532 52.581 164.795 52.8961L165.563 52.256ZM165.679 52.577V52.576H164.679V52.577H165.679ZM166.24 53.012C166.312 53.012 166.357 53.0318 166.357 53.0318C166.363 53.0343 166.356 53.0321 166.336 53.0191C166.294 52.993 166.231 52.9456 166.147 52.8725C165.982 52.728 165.776 52.5146 165.564 52.2588L164.793 52.8953C165.031 53.1835 165.275 53.4376 165.488 53.6246C165.594 53.7173 165.701 53.8016 165.804 53.8659C165.855 53.898 165.913 53.9306 165.976 53.9565C166.033 53.9801 166.127 54.012 166.24 54.012V53.012ZM165.97 53.1061C166.054 53.0403 166.159 53.0073 166.265 53.0127L166.214 54.0114C166.348 54.0182 166.48 53.9766 166.586 53.894L165.97 53.1061ZM165.18 52.5788C165.417 52.8624 165.604 53.1268 165.714 53.3194C165.772 53.4192 165.796 53.4789 165.803 53.5014C165.808 53.5148 165.797 53.489 165.798 53.4389C165.798 53.3934 165.811 53.2386 165.957 53.1168L166.599 53.8833C166.771 53.7395 166.796 53.5481 166.798 53.453C166.799 53.3533 166.777 53.2649 166.758 53.2045C166.719 53.0793 166.653 52.9461 166.581 52.8212C166.434 52.5643 166.21 52.2517 165.947 51.9373L165.18 52.5788ZM164.785 51.7176C164.637 51.8411 164.48 51.8245 164.437 51.8173C164.389 51.8091 164.366 51.7945 164.379 51.8013C164.4 51.8126 164.456 51.8482 164.544 51.9225C164.715 52.0658 164.944 52.2958 165.18 52.5788L165.947 51.9373C165.684 51.6223 165.414 51.3468 165.186 51.1559C165.076 51.063 164.956 50.9743 164.84 50.914C164.784 50.8849 164.701 50.8477 164.604 50.8312C164.512 50.8157 164.317 50.8052 164.143 50.9505L164.785 51.7176ZM165.006 50.0224C165.768 49.7965 166.567 49.7186 167.359 49.7929L167.453 48.7972C166.534 48.711 165.607 48.8015 164.722 49.0636L165.006 50.0224ZM165.364 49.549V49.543H164.364V49.549H165.364ZM167.358 49.2933C166.566 49.3693 165.768 49.2932 165.005 49.0693L164.723 50.0288C165.608 50.2886 166.535 50.3769 167.454 50.2888L167.358 49.2933ZM169.809 49.0636C169.045 49.2896 168.245 49.3675 167.452 49.2932L167.359 50.2889C168.279 50.3751 169.207 50.2847 170.093 50.0225L169.809 49.0636ZM167.453 49.7929C168.245 49.7184 169.045 49.7963 169.809 50.0225L170.093 49.0636C169.207 48.8013 168.279 48.7109 167.359 48.7972L167.453 49.7929ZM159.471 46.709C159.243 46.52 159.064 46.3373 158.958 46.203C158.933 46.1704 158.914 46.1435 158.9 46.1227C158.887 46.1009 158.882 46.0913 158.883 46.0926C158.883 46.0938 158.886 46.1008 158.89 46.1132C158.893 46.1251 158.899 46.1474 158.901 46.1777C158.905 46.2365 158.898 46.3636 158.798 46.482L158.034 45.8361C157.912 45.9805 157.896 46.1435 157.903 46.2468C157.91 46.3473 157.94 46.4323 157.965 46.4901C158.016 46.6075 158.094 46.7216 158.172 46.8206C158.333 47.0253 158.566 47.2581 158.833 47.4791L159.471 46.709ZM159.646 47.0185L159.645 47.0125L158.659 47.1756L158.66 47.1816L159.646 47.0185ZM160.277 47.1902C159.985 47.1048 159.718 46.9502 159.499 46.7395L158.806 47.4606C159.142 47.7828 159.55 48.0193 159.996 48.1499L160.277 47.1902ZM159.863 47.2817C159.95 47.2005 160.068 47.1607 160.186 47.1725L160.087 48.1676C160.255 48.1843 160.423 48.1278 160.546 48.0124L159.863 47.2817ZM159.147 47.0954C159.375 47.2867 159.555 47.4696 159.661 47.6042C159.687 47.6368 159.706 47.6637 159.72 47.6846C159.734 47.7064 159.738 47.7161 159.738 47.7149C159.737 47.7138 159.734 47.7069 159.731 47.6947C159.727 47.6829 159.722 47.661 159.72 47.6311C159.715 47.5731 159.721 47.449 159.817 47.3316L160.593 47.9625C160.71 47.8183 160.725 47.6579 160.717 47.555C160.709 47.455 160.679 47.3704 160.653 47.3126C160.602 47.1955 160.523 47.082 160.446 46.9837C160.285 46.7805 160.052 46.5494 159.789 46.3287L159.147 47.0954ZM158.798 46.482C158.699 46.5985 158.577 46.6268 158.521 46.6331C158.491 46.6363 158.469 46.6351 158.457 46.634C158.444 46.6328 158.437 46.6312 158.436 46.6309C158.435 46.6307 158.445 46.6331 158.469 46.6428C158.492 46.6521 158.522 46.6659 158.558 46.685C158.709 46.7639 158.92 46.9057 159.147 47.0954L159.789 46.3287C159.523 46.1064 159.253 45.9197 159.022 45.7991C158.911 45.7407 158.785 45.685 158.66 45.6563C158.599 45.6422 158.511 45.6282 158.411 45.639C158.31 45.6502 158.155 45.6936 158.034 45.8361L158.798 46.482ZM164.561 46.0668C164.287 46.3425 164.05 46.6218 163.889 46.8571C163.811 46.9712 163.736 47.0969 163.689 47.2196C163.666 47.2793 163.639 47.367 163.635 47.4685C163.631 47.57 163.651 47.7485 163.798 47.8956L164.505 47.1885C164.627 47.3106 164.636 47.4516 164.634 47.5046C164.632 47.5575 164.62 47.5857 164.623 47.5763C164.629 47.5608 164.654 47.51 164.715 47.4213C164.831 47.2508 165.025 47.0186 165.271 46.7712L164.561 46.0668ZM166.383 45.2945C166.233 45.1441 166.05 45.1276 165.951 45.1325C165.85 45.1374 165.764 45.1656 165.705 45.1886C165.584 45.2362 165.46 45.3115 165.346 45.3899C165.113 45.5517 164.835 45.7906 164.561 46.0669L165.271 46.7712C165.516 46.5245 165.746 46.3294 165.916 46.2121C166.004 46.1511 166.055 46.1257 166.071 46.1194C166.08 46.1156 166.052 46.1287 166 46.1313C165.948 46.1338 165.802 46.1278 165.676 46.0016L166.383 45.2945ZM165.623 47.1216C165.898 46.8457 166.134 46.5657 166.294 46.3301C166.371 46.2157 166.445 46.0907 166.492 45.9693C166.514 45.9103 166.542 45.8238 166.546 45.724C166.55 45.6261 166.533 45.4443 166.383 45.2945L165.676 46.0016C165.551 45.8761 165.545 45.7312 165.547 45.6814C165.549 45.6297 165.561 45.6025 165.558 45.6125C165.551 45.6289 165.526 45.6803 165.466 45.769C165.351 45.9394 165.158 46.1714 164.914 46.4165L165.623 47.1216ZM164.392 48.0196C164.881 47.8157 165.314 47.4963 165.653 47.0888L164.884 46.4493C164.649 46.7327 164.348 46.9547 164.008 47.0965L164.392 48.0196ZM163.887 47.9684C163.995 48.0381 164.124 48.0688 164.252 48.0553L164.148 47.0608C164.246 47.0504 164.345 47.074 164.429 47.1277L163.887 47.9684ZM163.798 47.8955L163.804 47.9015L164.511 47.1946L164.505 47.1886L163.798 47.8955ZM25.5922 36.7711C25.4198 36.9167 25.3962 37.11 25.3955 37.203C25.3947 37.3018 25.4169 37.3895 25.4358 37.4493C25.4748 37.5736 25.541 37.7062 25.6127 37.8309C25.7601 38.0873 25.983 38.3999 26.2457 38.7151L27.0139 38.075C26.7766 37.7902 26.5905 37.5253 26.4797 37.3325C26.4222 37.2325 26.397 37.1726 26.3898 37.1495C26.3854 37.1358 26.3958 37.1611 26.3954 37.2105C26.3951 37.2542 26.3841 37.4112 26.2375 37.535L25.5922 36.7711ZM27.3968 37.7544C27.1318 37.4406 26.8624 37.1658 26.6356 36.9753C26.5254 36.8827 26.4064 36.794 26.2909 36.7336C26.2353 36.7045 26.1527 36.667 26.0548 36.6503C25.9625 36.6346 25.7662 36.6241 25.5922 36.7711L26.2375 37.535C26.0892 37.6602 25.9307 37.6436 25.8871 37.6362C25.8378 37.6278 25.8145 37.6129 25.8274 37.6197C25.8489 37.6309 25.9038 37.6665 25.9925 37.7411C26.1637 37.8848 26.3929 38.1155 26.6328 38.3996L27.3968 37.7544ZM28.048 39.7023C28.2179 39.5598 28.2449 39.3705 28.247 39.2757C28.2491 39.1762 28.2278 39.0877 28.2094 39.027C28.1713 38.9011 28.1055 38.7674 28.034 38.6418C27.8871 38.3838 27.6634 38.0701 27.3968 37.7544L26.6328 38.3996C26.8713 38.682 27.0561 38.9453 27.1651 39.1367C27.2216 39.236 27.2457 39.2951 27.2524 39.3169C27.2563 39.33 27.2461 39.3041 27.2472 39.2542C27.2482 39.2089 27.262 39.0562 27.4056 38.9358L28.048 39.7023ZM27.665 39.8304C27.8038 39.8375 27.9403 39.7921 28.0471 39.703L27.4065 38.9351C27.4932 38.8628 27.604 38.8259 27.7166 38.8317L27.665 39.8304ZM26.2516 38.7201C26.4908 39.0072 26.7339 39.2611 26.9453 39.4474C27.05 39.5396 27.1568 39.624 27.2587 39.688C27.3096 39.72 27.3688 39.753 27.4332 39.779C27.491 39.8022 27.5904 39.8353 27.7103 39.8307L27.6714 38.8314C27.7528 38.8283 27.8045 38.8504 27.8066 38.8513C27.8153 38.8548 27.8108 38.8539 27.791 38.8415C27.7515 38.8167 27.6894 38.7701 27.6063 38.697C27.4423 38.5525 27.2348 38.3379 27.02 38.08L26.2516 38.7201ZM26.3097 38.7791L26.3157 38.7841L26.9559 38.016L26.9499 38.011L26.3097 38.7791ZM142.831 36.8246L141.624 35.3786L140.856 36.0195L142.063 37.4655L142.831 36.8246ZM142.833 36.8268L142.827 36.8198L142.067 37.4703L142.073 37.4773L142.833 36.8268ZM142.62 36.6523C142.578 36.6553 142.532 36.6557 142.481 36.6528L142.425 37.6512C142.515 37.6564 142.604 37.6561 142.692 37.6497L142.62 36.6523ZM146.513 33.579C146.029 33.4519 146.029 33.4518 146.029 33.4516C146.029 33.4516 146.029 33.4514 146.029 33.4514C146.029 33.4512 146.029 33.4512 146.029 33.4511C146.029 33.4511 146.029 33.4512 146.029 33.4516C146.029 33.4523 146.029 33.4539 146.028 33.4562C146.027 33.461 146.025 33.4689 146.021 33.4799C146.015 33.5017 146.005 33.5356 145.991 33.5796C145.962 33.6678 145.918 33.7964 145.856 33.9519C145.731 34.2643 145.538 34.6771 145.263 35.0864C144.71 35.9109 143.879 36.651 142.656 36.651V37.651C144.351 37.651 145.448 36.6052 146.094 35.6437C146.418 35.16 146.642 34.6798 146.785 34.3225C146.856 34.143 146.908 33.9926 146.943 33.8854C146.96 33.8318 146.973 33.7889 146.982 33.7585C146.986 33.7432 146.99 33.7311 146.992 33.7223C146.993 33.7179 146.994 33.7144 146.995 33.7117C146.995 33.7103 146.996 33.7092 146.996 33.7083C146.996 33.7078 146.996 33.7074 146.996 33.7071C146.996 33.7069 146.996 33.7067 146.996 33.7066C146.996 33.7064 146.996 33.7062 146.513 33.579ZM144.388 33.4854L146.374 34.0594L146.652 33.0987L144.666 32.5247L144.388 33.4854ZM141.24 35.699C141.317 36.193 141.318 36.193 141.318 36.1929C141.318 36.1929 141.318 36.1929 141.318 36.1929C141.319 36.1928 141.319 36.1928 141.319 36.1927C141.32 36.1926 141.321 36.1924 141.322 36.1922C141.325 36.1918 141.328 36.1913 141.332 36.1907C141.339 36.1894 141.349 36.1876 141.362 36.1853C141.388 36.1806 141.424 36.1737 141.469 36.1643C141.559 36.1455 141.685 36.1163 141.836 36.0741C142.138 35.99 142.548 35.852 142.973 35.636C143.813 35.2097 144.801 34.431 145.02 33.0854L144.033 32.9247C143.888 33.8141 143.233 34.3824 142.52 34.7443C142.17 34.9225 141.826 35.0389 141.568 35.1108C141.44 35.1465 141.335 35.1706 141.263 35.1856C141.228 35.1931 141.201 35.1983 141.183 35.2014C141.175 35.203 141.168 35.2041 141.165 35.2047C141.163 35.205 141.162 35.2051 141.162 35.2052C141.161 35.2052 141.161 35.2053 141.161 35.2052C141.161 35.2052 141.162 35.2052 141.162 35.2052C141.162 35.2052 141.162 35.2052 141.162 35.2052C141.162 35.2051 141.162 35.2051 141.24 35.699ZM18.2375 34.7852C17.318 34.6989 16.3904 34.7893 15.5048 35.0516L15.7888 36.0105C16.5521 35.7844 17.3515 35.7065 18.1441 35.7809L18.2375 34.7852ZM20.8758 35.0516C19.9905 34.7895 19.0634 34.6991 18.1442 34.7852L18.2375 35.7809C19.0297 35.7066 19.8289 35.7845 20.5919 36.0105L20.8758 35.0516ZM18.1439 36.2778C19.0635 36.3645 19.9911 36.2737 20.8764 36.0103L20.5912 35.0518C19.8287 35.2787 19.0298 35.3569 18.2377 35.2823L18.1439 36.2778ZM15.5129 36.0188C16.3967 36.2785 17.322 36.3664 18.2389 36.2777L18.1427 35.2824C17.353 35.3587 16.556 35.283 15.7948 35.0593L15.5129 36.0188ZM15.2705 35.8603L15.2775 35.8683L16.0301 35.2098L16.0231 35.2018L15.2705 35.8603ZM26.4558 35.8445C27.2188 35.6185 28.0179 35.5405 28.8101 35.6149L28.9035 34.6192C27.9843 34.533 27.0571 34.6234 26.1718 34.8856L26.4558 35.8445ZM26.6971 35.0438L26.6901 35.0358L25.9375 35.6943L25.9445 35.7023L26.6971 35.0438ZM28.8091 35.1153C28.0194 35.1911 27.2225 35.1157 26.4611 34.8931L26.1805 35.853C27.0639 36.1112 27.9884 36.1987 28.9046 36.1108L28.8091 35.1153ZM31.2589 34.8856C30.4956 35.1116 29.6961 35.1895 28.9035 35.1152L28.8102 36.1109C29.7297 36.197 30.6572 36.1066 31.5427 35.8445L31.2589 34.8856ZM28.9035 35.6149C29.6961 35.5405 30.4956 35.6184 31.2588 35.8445L31.5428 34.8856C30.6572 34.6233 29.7296 34.5329 28.8101 34.6192L28.9035 35.6149ZM20.9199 32.5319C20.6923 32.3422 20.5136 32.1598 20.4082 32.0256C20.3827 31.9931 20.3638 31.9664 20.3505 31.9457C20.3367 31.9242 20.3327 31.9148 20.3335 31.9166C20.3341 31.918 20.3372 31.9254 20.3407 31.9381C20.3441 31.9504 20.3494 31.973 20.3513 32.0037C20.3551 32.0641 20.3462 32.1889 20.248 32.3047L19.4857 31.6574C19.3649 31.7997 19.3467 31.9608 19.3533 32.066C19.3596 32.1675 19.3897 32.2533 19.4149 32.3118C19.4658 32.4302 19.5443 32.5447 19.6219 32.6435C19.7825 32.8478 20.0154 33.0798 20.2797 33.3002L20.9199 32.5319ZM20.9614 32.5705L20.9534 32.5625L20.2463 33.2696L20.2543 33.2776L20.9614 32.5705ZM21.7283 33.0128C21.4379 32.9265 21.1723 32.7722 20.9535 32.5628L20.2621 33.2853C20.5958 33.6046 21.0007 33.8397 21.4434 33.9713L21.7283 33.0128ZM21.3021 33.1126C21.3924 33.0239 21.518 32.9808 21.6437 32.9954L21.528 33.9887C21.703 34.0091 21.8779 33.9491 22.0035 33.8255L21.3021 33.1126ZM20.5973 32.9178C20.8248 33.1078 21.0038 33.2903 21.1098 33.4248C21.1355 33.4574 21.1546 33.4842 21.1681 33.5051C21.1821 33.5268 21.1863 33.5365 21.1858 33.5352C21.1853 33.5341 21.1822 33.527 21.1788 33.5148C21.1754 33.5029 21.1701 33.4809 21.1679 33.4508C21.1637 33.3923 21.1706 33.2683 21.2666 33.1515L22.039 33.7866C22.1571 33.6431 22.1728 33.4826 22.1654 33.3791C22.1581 33.2787 22.1278 33.1938 22.1025 33.1357C22.0513 33.0181 21.9728 32.9042 21.895 32.8056C21.7343 32.6018 21.5018 32.3703 21.2383 32.1503L20.5973 32.9178ZM20.248 32.3047C20.1512 32.4186 20.0319 32.4478 19.9739 32.4544C19.9441 32.4578 19.9215 32.4566 19.9092 32.4555C19.8964 32.4543 19.8889 32.4526 19.8876 32.4523C19.886 32.4519 19.8961 32.4543 19.9199 32.464C19.9426 32.4733 19.9722 32.4871 20.0087 32.5063C20.1593 32.5857 20.3703 32.7282 20.5973 32.9178L21.2383 32.1503C20.9744 31.9299 20.7048 31.7429 20.4752 31.6218C20.364 31.5632 20.2376 31.5067 20.1123 31.4779C20.0504 31.4636 19.9614 31.4494 19.8615 31.4607C19.7586 31.4724 19.605 31.5169 19.4857 31.6574L20.248 32.3047ZM26.0149 31.8889C25.7412 32.1647 25.5037 32.444 25.3431 32.6794C25.2652 32.7936 25.1903 32.9193 25.1436 33.0421C25.1208 33.1019 25.0935 33.1897 25.0899 33.291C25.0864 33.3925 25.1064 33.5707 25.2533 33.7176L25.9604 33.0105C26.0822 33.1324 26.0912 33.2731 26.0893 33.326C26.0874 33.3789 26.0746 33.4071 26.0782 33.3978C26.0841 33.3823 26.1088 33.3316 26.1693 33.2429C26.2854 33.0726 26.4794 32.8404 26.7247 32.5932L26.0149 31.8889ZM27.8366 31.1147C27.6864 30.966 27.5049 30.9496 27.4057 30.9545C27.3053 30.9594 27.2187 30.9875 27.1598 31.0105C27.0386 31.058 26.9142 31.1334 26.8007 31.2119C26.5669 31.3737 26.2891 31.6126 26.0149 31.8889L26.7247 32.5932C26.9695 32.3465 27.2003 32.1514 27.3697 32.0342C27.4578 31.9732 27.5087 31.9478 27.5247 31.9416C27.5344 31.9378 27.5068 31.9507 27.4544 31.9533C27.4033 31.9558 27.2588 31.9498 27.1331 31.8254L27.8366 31.1147ZM27.0777 32.9432C27.351 32.6678 27.5877 32.3881 27.7478 32.1528C27.8255 32.0386 27.9 31.9135 27.9466 31.792C27.9692 31.733 27.9968 31.6461 28.001 31.5457C28.0051 31.4466 27.9876 31.2642 27.8366 31.1147L27.1331 31.8254C27.0066 31.7002 26.9997 31.5547 27.0019 31.5037C27.0041 31.4514 27.0168 31.4238 27.013 31.4337C27.0067 31.45 26.9815 31.5015 26.9211 31.5903C26.8049 31.761 26.6116 31.9933 26.3679 32.2389L27.0777 32.9432ZM25.8468 33.8413C26.3353 33.6369 26.7674 33.318 27.1067 32.9114L26.3389 32.2707C26.1025 32.554 25.8013 32.7763 25.4608 32.9188L25.8468 33.8413ZM25.3669 33.8068C25.4723 33.8667 25.5942 33.8911 25.7145 33.8763L25.5931 32.8837C25.6857 32.8724 25.7796 32.8912 25.8608 32.9373L25.3669 33.8068ZM25.2305 33.6933L25.2375 33.7013L25.9901 33.0428L25.9831 33.0348L25.2305 33.6933Z" fill="black" fill-opacity="0.01"/>
<path d="M111.341 87.7921C111.874 88.2251 104.095 98.6861 93.9699 111.154C91.8119 113.773 89.7409 116.284 87.8379 118.594L86.9999 119.612L86.0999 118.683C78.1939 110.537 72.7999 104.483 73.1779 104.104C73.5559 103.725 79.6089 109.12 87.7569 117.026L86.0199 117.117C87.8889 114.779 89.9199 112.239 92.0409 109.588C102.166 97.1191 110.808 87.3611 111.341 87.7921Z" fill="white"/>
</svg>
