<svg width="35" height="36" viewBox="0 0 35 36" fill="none" xmlns="http://www.w3.org/2000/svg">
<path fill-rule="evenodd" clip-rule="evenodd" d="M27.4861 35.5519C28.0837 35.8461 28.7409 35.9994 29.4071 35.9999H30.3701C32.3694 36.0099 33.9993 34.3992 34.0131 32.3999V28.7999C33.9993 26.8006 32.3694 25.19 30.3701 25.1999H29.4191C28.7529 25.2003 28.0957 25.3536 27.4981 25.6479C26.6285 26.0745 25.6106 26.0745 24.7411 25.6479C24.3947 25.4799 24.0274 25.3588 23.6491 25.2879L24.8321 16.1999H26.1201C26.2804 16.2018 26.4348 16.1394 26.5488 16.0267C26.6629 15.914 26.7271 15.7603 26.7271 15.5999V13.1999C26.7271 13.0396 26.6629 12.8859 26.5488 12.7732C26.4348 12.6605 26.2804 12.5981 26.1201 12.5999H23.6921V10.7999C23.6914 10.6406 23.6273 10.488 23.5141 10.3759L20.6561 7.55194V5.68794L21.5761 4.96094L23.1481 8.06794L24.2351 7.53194L22.5461 4.19394L23.2971 3.59994H25.5121C25.6724 3.60181 25.8268 3.53942 25.9408 3.4267C26.0549 3.31397 26.1191 3.16029 26.1191 2.99994V0.599937C26.1191 0.439587 26.0549 0.285904 25.9408 0.173179C25.8268 0.0604538 25.6724 -0.00193348 25.5121 -6.27273e-05H19.4411C16.4426 -0.0139219 13.9985 2.40153 13.9771 5.39994C13.977 5.56029 14.0412 5.71397 14.1553 5.8267C14.2693 5.93942 14.4237 6.00181 14.5841 5.99994H15.7981V7.55194L14.1541 9.17594C14.0408 9.28802 13.9767 9.44057 13.9761 9.59994V12.5999H12.7611V7.79994C12.7605 7.72545 12.7455 7.65177 12.7171 7.58294C12.7058 7.55952 12.6931 7.53681 12.6791 7.51494C12.6644 7.48365 12.6474 7.45356 12.6281 7.42494L10.3281 4.58994V0.599937C10.3281 0.439587 10.2639 0.285904 10.1498 0.173179C10.0358 0.0604538 9.88139 -0.00193348 9.72105 -6.27273e-05H6.07805C5.91771 -0.00193348 5.7633 0.0604538 5.64926 0.173179C5.53521 0.285904 5.47104 0.439587 5.47105 0.599937V4.58994L3.17105 7.42494C3.1519 7.45366 3.13485 7.48374 3.12005 7.51494C3.10619 7.53692 3.09351 7.55962 3.08205 7.58294C3.05382 7.65185 3.03889 7.72548 3.03805 7.79994V12.5999H0.610052C0.449712 12.5981 0.295296 12.6605 0.181255 12.7732C0.0672149 12.8859 0.00304085 13.0396 0.00305176 13.1999V15.5999C0.00304085 15.7603 0.0672149 15.914 0.181255 16.0267C0.295296 16.1394 0.449712 16.2018 0.610052 16.1999H1.89805L4.25805 34.2769C4.29699 34.5779 4.55456 34.8024 4.85805 34.7999H19.1501C19.8426 35.5646 20.8264 36.0005 21.8581 35.9999H22.8091C23.4749 35.9993 24.1317 35.8461 24.7291 35.5519C25.5985 35.1251 26.6166 35.1251 27.4861 35.5519ZM29.4071 34.7999C28.9295 34.7992 28.4584 34.6891 28.0301 34.4779H28.0291C27.4309 34.1844 26.7734 34.0318 26.1071 34.0319C25.4411 34.0319 24.7839 34.1845 24.1861 34.4779C23.7577 34.689 23.2866 34.7991 22.8091 34.7999H21.8581C20.5251 34.8071 19.4383 33.7329 19.4301 32.3999V31.4759C20.0985 32.0715 20.9627 32.4004 21.8581 32.3999H22.8091C23.4749 32.3993 24.1317 32.246 24.7291 31.9519C25.5985 31.5251 26.6166 31.5251 27.4861 31.9519C28.0837 32.2461 28.7409 32.3994 29.4071 32.3999H30.3581C31.2537 32.4005 32.1182 32.0716 32.7871 31.4759V32.3999C32.7788 33.7333 31.6914 34.8077 30.3581 34.7999H29.4071ZM5.39205 33.5999H18.4281C18.2886 33.2152 18.2169 32.8092 18.2161 32.3999V28.7999C18.2298 26.8006 19.8597 25.19 21.8591 25.1999H22.4221L23.5981 16.1999H16.9981V17.6289L20.3091 19.2639C20.7745 19.4912 21.1289 19.8963 21.2921 20.3879C21.4562 20.8777 21.4162 21.413 21.1811 21.8729L21.1751 21.8849C20.6939 22.8345 19.539 23.2213 18.5831 22.7529L16.9971 21.9689V26.9999C16.9933 27.6402 16.7355 28.2527 16.2801 28.7028C15.8248 29.1529 15.2093 29.4037 14.5691 29.3999H8.49705C7.85682 29.4037 7.24132 29.1529 6.78598 28.7028C6.33064 28.2527 6.07275 27.6402 6.06905 26.9999V16.1999H3.11605L5.39205 33.5999ZM29.4071 31.2009C28.9295 31.2001 28.4585 31.09 28.0301 30.8789L28.0291 30.8779C27.4311 30.5849 26.774 30.4327 26.1081 30.4329C25.4421 30.4329 24.7849 30.5855 24.1871 30.8789C23.7586 31.0899 23.2876 31.2 22.8101 31.2009H21.8591C21.2188 31.2047 20.6033 30.9539 20.148 30.5038C19.6926 30.0537 19.4348 29.4412 19.4311 28.8009C19.4348 28.1607 19.6926 27.5482 20.148 27.0981C20.6033 26.648 21.2188 26.3972 21.8591 26.4009H22.8101C23.2876 26.4016 23.7587 26.5118 24.1871 26.7229C25.3992 27.3169 26.8179 27.3169 28.0301 26.7229C28.4584 26.5117 28.9295 26.4015 29.4071 26.4009H30.3581C30.9985 26.3969 31.6142 26.6476 32.0698 27.0977C32.5253 27.5478 32.7833 28.1605 32.7871 28.8009C32.7788 30.1343 31.6914 31.2087 30.3581 31.2009H29.4071ZM14.5721 22.8009V28.2009C14.8922 28.2028 15.1999 28.0774 15.4276 27.8524C15.6553 27.6273 15.7842 27.3211 15.7861 27.0009V21.0009C15.7866 20.91 15.8078 20.8204 15.8481 20.7389C15.9975 20.4401 16.3595 20.317 16.6601 20.4629L19.1251 21.6809C19.4749 21.8533 19.8983 21.713 20.0761 21.3659C20.1778 21.1828 20.1999 20.9658 20.1371 20.7659C20.0751 20.5792 19.9402 20.4256 19.7631 20.3399L16.1201 18.5399C15.914 18.439 15.7836 18.2294 15.7841 17.9999V13.7999H7.28405V26.9999C7.2859 27.3201 7.41485 27.6263 7.64252 27.8514C7.87019 28.0764 8.17793 28.2018 8.49805 28.1999V22.7999H9.71205V28.1999H10.9261V22.7999H12.1401V28.1999H13.3541V22.7999L14.5721 22.8009ZM25.5001 15.0009H17.0001V13.8009H25.5001V15.0009ZM1.21405 15.0009H6.07105V13.8009H1.21405V15.0009ZM15.1781 12.6009V9.84894L16.6441 8.40094H19.7841L22.4641 11.0489V12.6009H15.1781ZM4.24905 12.6009H11.5351V8.40094H4.24905V12.6009ZM19.4281 7.20094H16.9991L17.0001 5.99994H19.4281V7.20094ZM4.90505 7.20094H10.8801L9.42305 5.40094H6.36305L4.90505 7.20094ZM19.8211 4.80094H15.2211L15.2221 4.79994C15.5394 2.72451 17.3275 1.19364 19.4271 1.19994H22.4631V2.71294L19.8211 4.80094ZM6.67805 4.20094H9.10705V1.20094H6.67805V4.20094ZM24.8921 2.40094H23.6781V1.20094H24.8921V2.40094ZM27.3211 29.4009V28.2009H28.5351V29.4009H27.3211ZM22.4631 28.2009H21.2491V29.4009H22.4631V28.2009ZM29.7491 27.6009H30.9631V28.8009H29.7491V27.6009ZM24.8921 27.6009H23.6781V28.8009H24.8921V27.6009Z" fill="white"/>
</svg>
