<svg width="30" height="34" viewBox="0 0 30 34" fill="none" xmlns="http://www.w3.org/2000/svg">
<circle cx="17.5551" cy="13.7111" r="1" fill="white"/>
<circle cx="11.5551" cy="13.7111" r="1" fill="white"/>
<path d="M17.106 16.451H15.829C15.829 17.1549 15.2584 17.7255 14.5545 17.7255C13.8506 17.7255 13.28 17.1549 13.28 16.451H12.006C12.006 17.8594 13.1477 19.001 14.556 19.001C15.9643 19.001 17.106 17.8594 17.106 16.451Z" fill="white"/>
<path fill-rule="evenodd" clip-rule="evenodd" d="M23.785 24.953L18.255 22.69C17.6469 22.4408 17.2512 21.8472 17.255 21.19V20.803C18.9087 19.6606 20.1788 18.0455 20.899 16.169H21.029C22.5202 16.169 23.729 14.9602 23.729 13.469V9.60004C24.4483 9.34962 24.8933 8.62886 24.7948 7.87356C24.6964 7.11827 24.0815 6.53567 23.322 6.47804C22.1462 2.62658 18.592 -0.0045166 14.565 -0.0045166C10.5381 -0.0045166 6.98383 2.62658 5.808 6.47804C5.04835 6.53529 4.43313 7.11774 4.33441 7.87312C4.23569 8.62851 4.68058 9.3495 5.4 9.60004V13.473C5.4 14.9642 6.60884 16.173 8.10001 16.173H8.23C8.95006 18.0496 10.2202 19.6648 11.874 20.807V21.194C11.8778 21.8512 11.4821 22.4448 10.874 22.694L5.344 24.956C2.11165 26.2599 -0.0036406 29.3976 4.70403e-06 32.883V33.422H29.109V32.883C29.1174 29.4014 27.0107 26.2634 23.785 24.953ZM10.104 26.953L10.529 28.031H6.305L5.905 26.953H10.104ZM9.157 24.549L5.916 25.875H9.679L9.157 24.549ZM6.469 30.188V29.109H10.782L10.781 30.188H6.469ZM10.782 31.266H6.469V32.344H10.782V31.266ZM10.156 24.141L10.902 23.836C11.6836 25.1032 13.0661 25.8749 14.555 25.8749C16.0439 25.8749 17.4264 25.1032 18.208 23.836L18.954 24.141L17.254 28.469V32.345H11.859V28.468L10.156 24.141ZM23.197 25.875L19.956 24.549L19.43 25.875H23.197ZM22.645 30.188H18.328V29.109H22.641L22.645 30.188ZM22.646 31.266H18.333L18.328 32.344H22.646V31.266ZM22.8 28.031H18.581L19.006 26.953H23.206L22.8 28.031ZM6.468 11.334C6.75974 11.1121 7.09399 10.9524 7.45 10.865C7.10159 10.5849 6.77344 10.2805 6.468 9.95404V11.334ZM7.75 9.70304H7.75534C9.29829 11.0899 11.2993 11.8577 13.374 11.859H15.735C17.8111 11.8586 19.8138 11.0907 21.358 9.70304H7.75534L7.752 9.70004L7.75 9.70304ZM22.639 11.334V9.95404C22.3333 10.2802 22.0052 10.5846 21.657 10.865C22.013 10.9525 22.3472 11.1122 22.639 11.334ZM21.245 15.071C21.4538 14.2599 21.56 13.4257 21.561 12.588V11.959C22.2647 12.2035 22.7084 12.8993 22.6332 13.6404C22.558 14.3816 21.9835 14.974 21.245 15.072V15.071ZM10.253 5.50004L9.69401 2.70004C8.41998 3.6558 7.45779 4.96771 6.929 6.47004H22.18C21.6502 4.9699 20.6881 3.6602 19.415 2.70604L18.857 5.49804L17.8 5.28604L18.446 2.07504C17.8717 1.76039 17.2612 1.51692 16.628 1.35004L16.172 5.45004L15.1 5.33104L15.562 1.15104C15.2281 1.10676 14.8918 1.08338 14.555 1.08104C14.2183 1.08324 13.882 1.10594 13.548 1.14904L14.013 5.33304L12.941 5.45204L12.485 1.35204C11.8519 1.51883 11.2414 1.76195 10.667 2.07604L11.31 5.28804L10.253 5.50004ZM5.93 7.54704H23.18C23.4777 7.54704 23.719 7.78836 23.719 8.08604C23.719 8.38372 23.4777 8.62504 23.18 8.62504H5.93C5.63232 8.62504 5.391 8.38372 5.391 8.08604C5.391 7.78836 5.63232 7.54704 5.93 7.54704ZM7.547 11.959C6.90281 12.1862 6.47117 12.794 6.469 13.477C6.4719 14.2814 7.06623 14.961 7.863 15.071C7.65422 14.2599 7.54806 13.4257 7.547 12.588V11.959ZM8.625 12.588V11.661C10.0688 12.4963 11.707 12.9368 13.375 12.938H15.736C17.404 12.9368 19.0422 12.4963 20.486 11.661V12.588C20.4879 16.3614 18.1123 19.7266 14.556 20.988C10.9998 19.7266 8.62409 16.3614 8.62601 12.588H8.625ZM14.554 22.131L14.384 22.074H14.383C13.8787 21.9057 13.3885 21.6977 12.917 21.452C12.8468 22.2031 12.4626 22.8896 11.859 23.342C12.455 24.2498 13.468 24.7965 14.554 24.7965C15.64 24.7965 16.653 24.2498 17.249 23.342C16.6449 22.8899 16.2602 22.2033 16.19 21.452C15.7186 21.6979 15.2284 21.9059 14.724 22.074L14.554 22.131ZM4.6 26.533L5.39 28.667V32.344H1.1C1.26629 29.9575 2.56823 27.796 4.6 26.533ZM23.718 28.667V32.344H28.008C27.8419 29.9575 26.5399 27.7958 24.508 26.533L23.718 28.667Z" fill="white"/>
<path d="M13.284 31.841L14.209 32.397L16.318 28.883H14.699L15.826 27.003L14.901 26.447L12.793 29.962H14.411L13.284 31.841Z" fill="white"/>
</svg>
