<svg width="36" height="37" viewBox="0 0 36 37" fill="none" xmlns="http://www.w3.org/2000/svg">
<path fill-rule="evenodd" clip-rule="evenodd" d="M31.5833 1.73922C31.5132 1.91238 31.5153 2.10636 31.589 2.27799H31.598C31.7067 2.5357 31.9583 2.70399 32.238 2.70599C32.3322 2.70594 32.4253 2.6869 32.512 2.64999L35.57 1.34999C35.7421 1.2777 35.8782 1.13964 35.9481 0.966505C36.018 0.793366 36.0158 0.599496 35.942 0.42799C35.8697 0.255853 35.7316 0.119726 35.5585 0.0498696C35.3854 -0.0199867 35.1915 -0.0177834 35.02 0.0559898L31.962 1.35599C31.7897 1.42809 31.6533 1.56607 31.5833 1.73922ZM5.54767 35.0133C5.47141 35.1839 5.46649 35.3778 5.53398 35.552C5.6233 35.8407 5.88782 36.0395 6.18998 36.045C6.27549 36.0447 6.36022 36.0288 6.43998 35.998C7.71753 35.468 8.81361 34.5783 9.59498 33.437C10.9593 31.4529 11.7215 29.1169 11.79 26.71H13.761C13.6885 29.5311 12.795 32.2699 11.19 34.591C11.12 34.688 11.044 34.789 10.951 34.909C10.8355 35.0559 10.7836 35.2428 10.8067 35.4281C10.8298 35.6135 10.926 35.782 11.074 35.896C11.221 36.0113 11.408 36.0631 11.5933 36.0398C11.7787 36.0165 11.9471 35.9201 12.061 35.772C12.165 35.639 12.25 35.525 12.33 35.415C14.107 32.853 15.0937 29.8261 15.168 26.709H16.735C17.1216 26.709 17.435 26.3956 17.435 26.009V23.309H18.776C20.0194 23.3073 21.0269 22.2994 21.028 21.056C21.0285 20.6773 20.9328 20.3046 20.75 19.973C21.5146 19.5919 21.9982 18.8113 21.999 17.957C21.9999 17.4035 21.7962 16.8693 21.427 16.457C21.8553 16.0348 22.0963 15.4584 22.096 14.857C22.0957 14.1096 21.7249 13.411 21.106 12.992C21.2909 12.7108 21.4102 12.3916 21.455 12.058H25.53C25.9166 12.058 26.23 11.7446 26.23 11.358V8.75799L29.946 10.337C30.0329 10.374 30.1265 10.3931 30.221 10.393C30.5032 10.3938 30.7583 10.225 30.868 9.96499C30.9418 9.79348 30.944 9.59961 30.8741 9.42647C30.8042 9.25334 30.6681 9.11528 30.496 9.04299L26.23 7.23099V5.35899L28.669 4.32299C28.8413 4.25089 28.9777 4.11291 29.0477 3.93975C29.1178 3.7666 29.1157 3.57262 29.042 3.40099C28.9697 3.22885 28.8316 3.09273 28.6585 3.02287C28.4854 2.95301 28.2915 2.95522 28.12 3.02899L26.231 3.82899V1.22899C26.231 0.84239 25.9176 0.52899 25.531 0.52899H20.731C20.3444 0.52899 20.031 0.84239 20.031 1.22899V2.70699H16.177C15.7904 2.70699 15.477 3.02039 15.477 3.40699C15.477 3.79359 15.7904 4.10699 16.177 4.10699H20.031V8.46399H5.99198V4.10699H9.84698C10.2336 4.10699 10.547 3.79359 10.547 3.40699C10.547 3.02039 10.2336 2.70699 9.84698 2.70699H5.99198V1.22899C5.99198 0.84239 5.67858 0.52899 5.29198 0.52899H1.35398C0.967382 0.52899 0.653981 0.84239 0.653981 1.22899V10.123C0.289011 10.1518 0.00784977 10.4569 0.00898145 10.823C0.00898145 11.2096 0.322382 11.523 0.708981 11.523H5.74398C5.88325 11.5231 6.01939 11.4817 6.13498 11.404L6.87998 10.904C7.8858 10.2302 9.06935 9.87098 10.28 9.87199C11.4104 9.87187 12.5349 10.0363 13.618 10.36C14.8316 10.7223 16.0914 10.9062 17.358 10.906H19.233C19.6998 10.9071 20.0779 11.2852 20.079 11.752C20.0784 12.219 19.7 12.5974 19.233 12.598H16.947C16.5604 12.598 16.247 12.9114 16.247 13.298C16.247 13.6846 16.5604 13.998 16.947 13.998H19.853C20.3205 13.9985 20.6994 14.3774 20.7 14.845C20.6989 15.3122 20.3201 15.6904 19.853 15.691H16.947C16.5604 15.691 16.247 16.0044 16.247 16.391C16.247 16.7776 16.5604 17.091 16.947 17.091H19.756C20.2234 17.0915 20.602 17.4706 20.602 17.938C20.6014 18.405 20.223 18.7834 19.756 18.784H16.947C16.5604 18.784 16.247 19.0974 16.247 19.484C16.247 19.8706 16.5604 20.184 16.947 20.184H18.785C19.252 20.1845 19.6304 20.563 19.631 21.03C19.6304 21.497 19.252 21.8754 18.785 21.876H13.765C10.9465 21.8839 8.24245 20.7615 6.25798 18.76C6.1258 18.6268 5.94566 18.5522 5.75798 18.553H0.705981C0.319382 18.553 0.00598145 18.8664 0.00598145 19.253C0.00598145 19.6396 0.319382 19.953 0.705981 19.953H5.47098C6.25979 20.7077 7.1476 21.3516 8.10998 21.867V25.972C8.10998 26.3586 8.42338 26.672 8.80998 26.672H10.383C10.3171 28.7822 9.64884 30.8294 8.45698 32.572C7.83553 33.4911 6.96137 34.2107 5.93998 34.644C5.76517 34.7098 5.62392 34.8428 5.54767 35.0133ZM16.032 25.263H9.51298V22.499C10.8702 23.0101 12.3087 23.271 13.759 23.269H16.032V25.263ZM21.433 10.613H24.833V1.89399H21.433V10.613ZM4.58198 10.081H2.05098V1.89399H4.58198V10.081ZM35.024 12.451L32.874 11.537C32.7017 11.4649 32.5653 11.3269 32.4953 11.1538C32.4252 10.9806 32.4273 10.7866 32.501 10.615C32.5733 10.4429 32.7113 10.3067 32.8845 10.2369C33.0576 10.167 33.2515 10.1692 33.423 10.243L35.573 11.157C35.7453 11.2291 35.8817 11.3671 35.9517 11.5402C36.0218 11.7134 36.0197 11.9074 35.946 12.079C35.8363 12.339 35.5812 12.5078 35.299 12.507C35.2045 12.5071 35.1109 12.488 35.024 12.451ZM29.524 6.25699C29.524 6.64359 29.8374 6.95699 30.224 6.95699H33.144C33.5306 6.95699 33.844 6.64359 33.844 6.25699C33.844 5.87039 33.5306 5.55699 33.144 5.55699H30.224C29.8374 5.55699 29.524 5.87039 29.524 6.25699ZM12.506 3.86899C12.374 3.73602 12.3 3.5563 12.3 3.36899C12.3 3.18167 12.374 3.00196 12.506 2.86899C12.6389 2.73696 12.8186 2.6629 13.006 2.66299C13.1933 2.6629 13.3731 2.73696 13.506 2.86899C13.6381 3.00183 13.7122 3.18163 13.712 3.36899C13.712 3.5563 13.6379 3.73602 13.506 3.86899C13.3731 4.00102 13.1933 4.07508 13.006 4.07499C12.8204 4.07376 12.6427 3.9998 12.511 3.86899H12.506Z" fill="white"/>
</svg>
