<svg width="40" height="40" viewBox="0 0 40 40" fill="none" xmlns="http://www.w3.org/2000/svg">
<path d="M39.407 12.263C39.1225 11.1869 38.4197 10.2691 37.455 9.71396L32.536 6.87696C32.1665 6.66378 31.6942 6.79048 31.481 7.15996C31.2678 7.52944 31.3945 8.00178 31.764 8.21496L36.678 11.052C37.9468 11.7846 38.3816 13.4071 37.649 14.676L33.749 21.431V15.923C33.749 15.1087 33.3452 14.3474 32.6711 13.8907C31.997 13.4339 31.1403 13.3411 30.384 13.643V11.543C30.3837 10.7221 29.9732 9.95573 29.2901 9.50064C28.607 9.04556 27.7416 8.96199 26.984 9.27796C26.7778 8.10388 25.758 7.24758 24.566 7.24758C23.374 7.24758 22.3542 8.10388 22.148 9.27796C21.3904 8.96199 20.525 9.04556 19.8419 9.50064C19.1588 9.95573 18.7483 10.7221 18.748 11.543V20.897L17.891 19.559C17.1562 18.4034 15.6843 17.9629 14.4355 18.5249C13.1868 19.0868 12.5404 20.4807 12.918 21.797L12.982 22.022C13.3185 23.1995 13.7763 24.3389 14.348 25.422L9.026 22.349C7.75797 21.6152 7.32352 19.9933 8.055 18.724L17.205 2.87296C17.556 2.26251 18.1353 1.81665 18.8152 1.63358C19.4951 1.45051 20.22 1.54526 20.83 1.89696L25.744 4.73396C26.1132 4.94742 26.5855 4.82116 26.799 4.45196C27.0125 4.08276 26.8862 3.61042 26.517 3.39696L21.602 0.563958C19.5948 -0.594994 17.0282 0.0910747 15.867 2.09696L15.379 2.94196C13.4887 2.39591 11.5352 2.0994 9.568 2.05996H9.555C9.12836 2.05582 8.77914 2.39832 8.775 2.82496C8.77086 3.2516 9.11336 3.60082 9.54 3.60496C11.2442 3.63901 12.938 3.88011 14.584 4.32296L9.468 13.184C8.35632 12.8017 7.19139 12.5969 6.016 12.577C5.74001 12.572 5.48232 12.7146 5.33999 12.9511C5.19767 13.1876 5.19233 13.4821 5.32599 13.7236C5.45965 13.9651 5.71201 14.117 5.988 14.122C6.90046 14.1377 7.8061 14.2825 8.678 14.552L6.719 17.945C6.1614 18.9096 6.00997 20.0563 6.29804 21.1327C6.58612 22.209 7.29009 23.1268 8.255 23.684L16.243 28.297C17.1678 29.4452 18.232 30.4737 19.411 31.359V38.779C19.411 39.2056 19.7569 39.5515 20.1835 39.5515C20.6101 39.5515 20.956 39.2056 20.956 38.779V30.966C20.9558 30.7168 20.8356 30.483 20.633 30.338C17.6527 28.2017 15.4805 25.1222 14.468 21.598L14.404 21.373C14.2397 20.7959 14.5231 20.1856 15.0699 19.9388C15.6167 19.6919 16.2619 19.8831 16.586 20.388L18.866 23.948C19.0506 24.2376 19.4045 24.3705 19.7341 24.2739C20.0637 24.1773 20.2899 23.8745 20.289 23.531V20.331C20.289 20.326 20.289 20.321 20.289 20.316V11.546C20.289 11.0434 20.6964 10.636 21.199 10.636C21.7016 10.636 22.109 11.0434 22.109 11.546V18.797C22.109 19.2236 22.4549 19.5695 22.8815 19.5695C23.3081 19.5695 23.654 19.2236 23.654 18.797V9.70596C23.654 9.20338 24.0614 8.79596 24.564 8.79596C25.0666 8.79596 25.474 9.20338 25.474 9.70596V18.797C25.474 19.2236 25.8199 19.5695 26.2465 19.5695C26.6731 19.5695 27.019 19.2236 27.019 18.797V11.546C27.019 11.0434 27.4264 10.636 27.929 10.636C28.4316 10.636 28.839 11.0434 28.839 11.546V18.797C28.839 19.2236 29.1849 19.5695 29.6115 19.5695C30.0381 19.5695 30.384 19.2236 30.384 18.797V15.923C30.384 15.5978 30.5574 15.2974 30.839 15.1349C31.1206 14.9723 31.4674 14.9723 31.749 15.1349C32.0306 15.2974 32.204 15.5978 32.204 15.923V22.255C32.1948 25.3084 30.98 28.2347 28.824 30.397C28.6787 30.5419 28.597 30.7387 28.597 30.944V38.775C28.597 39.2016 28.9429 39.5475 29.3695 39.5475C29.7961 39.5475 30.142 39.2016 30.142 38.775V31.263C31.8024 29.5323 32.9494 27.3744 33.455 25.03L38.987 15.449C39.547 14.4857 39.6983 13.3384 39.407 12.263Z" fill="white"/>
<path d="M0.773047 5.26191C0.875988 5.26252 0.978004 5.24246 1.07305 5.20291C2.63105 4.55778 4.26114 4.10283 5.92805 3.84791C6.34972 3.78329 6.63916 3.38908 6.57455 2.96741C6.50993 2.54574 6.11572 2.25629 5.69405 2.32091C3.90284 2.59424 2.15117 3.08277 0.477047 3.77591C0.137171 3.91825 -0.0549909 4.28069 0.0179276 4.64188C0.0908461 5.00307 0.408571 5.26258 0.777047 5.26191H0.773047Z" fill="white"/>
<path d="M0.772961 10.299C0.873816 10.2991 0.973712 10.2794 1.06696 10.241C3.4886 9.24748 6.12503 8.89348 8.72296 9.21295C8.9968 9.24672 9.26786 9.13182 9.43402 8.91154C9.60018 8.69127 9.6362 8.39908 9.52852 8.14504C9.42084 7.89101 9.1858 7.71372 8.91196 7.67995C6.0504 7.32777 3.14635 7.71759 0.478961 8.81195C0.138779 8.95307 -0.0546028 9.31459 0.0168303 9.67589C0.0882635 10.0372 0.404672 10.2979 0.772961 10.299Z" fill="white"/>
<path d="M1.91999 13.2729C1.39675 13.4661 0.88867 13.6981 0.39999 13.9669C0.0260935 14.1727 -0.110236 14.6425 0.0954903 15.0164C0.301216 15.3903 0.771094 15.5267 1.14499 15.3209C1.56611 15.0886 2.004 14.888 2.45499 14.7209C2.84172 14.5643 3.03429 14.1289 2.89009 13.7374C2.74589 13.3458 2.31697 13.1394 1.92099 13.2709L1.91999 13.2729Z" fill="white"/>
<path d="M29.14 6.58099C29.5089 6.58108 29.8264 6.32056 29.8983 5.95879C29.9703 5.59703 29.7766 5.23483 29.4358 5.09376C29.095 4.95269 28.702 5.07207 28.4973 5.37886C28.2925 5.68565 28.333 6.09437 28.594 6.35499C28.7393 6.49902 28.9354 6.58018 29.14 6.58099Z" fill="white"/>
</svg>
