<svg width="32" height="32" viewBox="0 0 32 32" fill="none" xmlns="http://www.w3.org/2000/svg">
<path fill-rule="evenodd" clip-rule="evenodd" d="M27.482 18H29.306C30.3121 18 31.1287 18.8139 31.132 19.82V28.82C31.1309 29.8269 30.3149 30.6429 29.308 30.644H27.484C26.7829 30.6435 26.1441 30.2417 25.84 29.61H21.34C20.4989 30.5759 19.2808 31.1302 18 31.13H13.132C11.8512 31.1302 10.6331 30.5759 9.792 29.61H5.292C4.98821 30.2421 4.34928 30.6443 3.648 30.645H1.824C0.81709 30.6439 0.00110226 29.8279 0 28.821V19.821C0.00275335 18.8153 0.818258 18.0011 1.824 18H3.648C4.34806 17.999 4.98706 18.3983 5.293 19.028H8.693V17.812C8.693 17.3083 9.10132 16.9 9.605 16.9H11.005V14.166C11.005 13.9241 11.1011 13.6922 11.2721 13.5211C11.4432 13.3501 11.6751 13.254 11.917 13.254H12.829V10.36L6.678 5.472H4.256C2.74495 5.472 1.52 4.24705 1.52 2.736C1.52 1.22495 2.74495 0 4.256 0H26.873C28.3841 0 29.609 1.22495 29.609 2.736C29.609 4.24705 28.3841 5.472 26.873 5.472H24.451L18.3 10.36V13.255H19.214C19.7177 13.255 20.126 13.6633 20.126 14.167V16.903H21.526C22.0297 16.903 22.438 17.3113 22.438 17.815V19.034H25.838C26.1421 18.4023 26.7809 18.0005 27.482 18ZM1.824 28.819H3.648V19.819H1.824V28.819ZM18.3 8.03V5.472H21.52L18.3 8.03ZM3.46618 3.192C3.6291 3.47417 3.93017 3.648 4.256 3.648H26.874C27.3777 3.648 27.786 3.23968 27.786 2.736C27.786 2.23232 27.3777 1.824 26.874 1.824H4.256C3.93017 1.824 3.6291 1.99783 3.46618 2.28C3.30327 2.56217 3.30327 2.90983 3.46618 3.192ZM14.653 7.3V5.472H16.477V7.3H14.653ZM16.477 13.254V9.12H14.653V13.254H16.477ZM9.61 5.472H12.829V8.03L9.61 5.472ZM18.3 15.078H12.829V16.9H18.3V15.078ZM5.472 27.786V20.855H8.694V26.692C8.69392 27.0609 8.73994 27.4285 8.831 27.786H5.472ZM13.133 29.306H18C19.4418 29.3027 20.6094 28.1338 20.611 26.692V18.727H10.519V26.692C10.5207 28.135 11.69 29.3043 13.133 29.306ZM22.438 26.692V20.855H25.66V27.786H22.3C22.3905 27.4281 22.4358 27.0602 22.435 26.691L22.438 26.692ZM27.482 28.82H29.308L29.306 19.82H27.482V28.82Z" fill="white"/>
</svg>
