<svg width="35" height="24" viewBox="0 0 35 24" fill="none" xmlns="http://www.w3.org/2000/svg">
<path fill-rule="evenodd" clip-rule="evenodd" d="M34.9075 21.0368L34.9075 21.0438L34.9071 21.054L34.9082 21.0598C34.9092 21.0645 34.9101 21.0695 34.9101 21.073V21.089V23.271C34.9101 23.4641 34.8334 23.6492 34.6969 23.7858C34.5604 23.9223 34.3752 23.999 34.1821 23.999C34.1008 23.9989 34.0201 23.9854 33.9431 23.959L30.0001 22.588L26.0671 23.961C25.9128 24.0153 25.7445 24.0153 25.5901 23.961L21.6471 22.59L17.7041 23.961C17.5498 24.0153 17.3815 24.0153 17.2271 23.961L13.2831 22.59L9.34114 23.961C9.18668 24.0147 9.0186 24.0147 8.86414 23.961L4.90314 22.59L0.97814 23.961C0.755647 24.0388 0.509239 24.0039 0.317088 23.8674C0.124937 23.7309 0.0108941 23.5097 0.0111396 23.274V21.074C0.0106097 21.0673 0.0106097 21.0606 0.0111396 21.054V21.026C0.0116377 21.0197 0.0116377 21.0133 0.0111396 21.007V20.977C0.0115254 20.9713 0.0115254 20.9656 0.0111396 20.96L0.0141224 20.9495L0.0141242 20.9495C0.0175853 20.9377 0.0211396 20.9255 0.0211396 20.914L5.11314 0.552977C5.1939 0.229319 5.48456 0.00214916 5.81814 0.00197737H29.0901C29.4251 -0.000745468 29.7185 0.226088 29.8001 0.550977L34.8981 20.914L34.8998 20.92C34.9034 20.9332 34.9071 20.947 34.9071 20.96C34.9076 20.9653 34.9076 20.9707 34.9071 20.976V21.007V21.026L34.9075 21.0368ZM30.2381 18.949L33.1491 19.962L31.7481 14.374L28.6721 13.287L25.7001 14.315L26.4281 20.108L29.7611 18.949C29.9157 18.8958 30.0836 18.8958 30.2381 18.949ZM30.1171 7.83198L31.3291 12.681L28.9201 11.83C28.7647 11.7757 28.5955 11.7757 28.4401 11.83L25.5191 12.84L24.8851 7.76498L27.3771 6.89198L30.1171 7.83198ZM29.6971 6.15398L28.5231 1.45398L24.1001 1.45498L24.7011 6.28998L27.1341 5.43798C27.2886 5.38425 27.4567 5.38425 27.6111 5.43798L29.6971 6.15398ZM18.1811 1.45398H22.6301L23.2241 6.20298L21.0001 5.43498C20.8463 5.38148 20.679 5.38148 20.5251 5.43498L18.1831 6.24898L18.1811 1.45398ZM20.7611 6.88898L18.1811 7.78898V12.792L20.9571 11.827C21.1119 11.773 21.2804 11.773 21.4351 11.827L24.0411 12.738L23.4241 7.80898L20.7611 6.88898ZM18.1811 14.334L21.1951 13.286L24.2431 14.352L24.9501 20.017L21.8751 18.947C21.7202 18.8938 21.552 18.8938 21.3971 18.947L18.1811 20.066V14.334ZM16.7301 1.45398H12.2811L11.6871 6.20898L13.9131 5.43998C14.0673 5.38648 14.235 5.38648 14.3891 5.43998L16.7301 6.25398V1.45398ZM16.7301 14.334V20.067L13.5141 18.948C13.3596 18.8948 13.1917 18.8948 13.0371 18.948L9.96114 20.018L10.6691 14.355L13.7161 13.287L16.7301 14.334ZM14.1491 6.89198L11.4861 7.81198L10.8691 12.745L13.4751 11.832C13.6302 11.778 13.799 11.778 13.9541 11.832L16.7291 12.797V7.79198L14.1491 6.89198ZM6.38614 1.45398H10.8121L10.2121 6.28798L7.77914 5.43598C7.62469 5.38217 7.45659 5.38217 7.30214 5.43598L5.21614 6.15198L6.38614 1.45398ZM7.53214 6.89198L4.79214 7.83198L3.58014 12.682L5.98814 11.829C6.14321 11.7748 6.31207 11.7748 6.46714 11.829L9.39014 12.838L10.0231 7.76498L7.53214 6.89198ZM3.15614 14.373L6.23314 13.286L9.20014 14.313L8.47614 20.113L5.12614 18.953C5.04957 18.9266 4.96914 18.9131 4.88814 18.913C4.80615 18.913 4.72472 18.9265 4.64714 18.953L1.76014 19.96L3.15614 14.373ZM30.2411 21.13L33.4561 22.249L33.4541 22.243V21.602L30.0001 20.402L26.0501 21.777L26.0271 21.784L25.9841 21.796L25.9601 21.801L25.9141 21.81H25.9021H25.8831H25.8671H25.8121H25.7841H25.7501H25.7121H25.6891L25.6511 21.801L25.6281 21.796L25.5921 21.785L25.5751 21.78L21.6321 20.409L17.6891 21.78H17.6791L17.6471 21.79L17.6141 21.799L17.5831 21.805L17.5431 21.811H17.5171H17.4501H17.3821H17.3561L17.3161 21.805L17.2861 21.799L17.2521 21.79L17.2211 21.78H17.2111L13.2671 20.409L9.32514 21.78L9.30814 21.785L9.27214 21.796L9.24914 21.801L9.21114 21.81H9.18914H9.15014H9.12414H9.08814H9.03314H9.01814H8.99714H8.98414L8.94114 21.801L8.91514 21.796L8.87114 21.784L8.84914 21.778L4.88814 20.407L1.45014 21.607V22.248L4.65014 21.13C4.72772 21.1035 4.80915 21.09 4.89114 21.09C4.97214 21.09 5.05257 21.1035 5.12914 21.13L9.08914 22.502L13.0331 21.131C13.1877 21.0778 13.3556 21.0778 13.5101 21.131L17.4541 22.502L21.3971 21.131C21.552 21.0778 21.7202 21.0778 21.8751 21.131L25.8171 22.502L29.7641 21.13C29.9187 21.0768 30.0866 21.0768 30.2411 21.13Z" fill="white"/>
</svg>
